<svg width="950" height="535" viewBox="0 0 950 535" fill="none" xmlns="http://www.w3.org/2000/svg">
<path d="M479.551 534V445.821H598.114V534M478.226 534V445.821H359.663V534M479.551 0V88.179H598.114V0M478.226 0V88.179H359.663V0M358.338 534V445.821H239.775V534M358.338 0V88.179H239.775V0M238.451 534V445.821H119.888V534M238.451 0V88.179H119.888V0M0 356.657H118.563V444.836H0M118.563 534V445.821H0M0 266.507H118.563V178.328H0M0 177.343H118.563V89.1642H0M0 267.493H118.563V355.672H0M118.563 0V88.179H0M597.03 534V445.821H712.633V534M714.326 534V445.821H829.928V534M829.928 0V88.179H714.326V0M713.001 0V88.179H713.958V0M712.633 0V88.179H597.03V0M950 444.836H831.437V356.657H950M831.437 534V445.821H950M950 177.343H831.437V89.1642H950M950 178.328H831.437V266.507H950M950 267.493H831.437V355.672H950M950 88.179H831.437V0M598.114 356.657V444.836H479.551V356.657H598.114ZM478.226 356.657V444.836H359.663V356.657H478.226ZM598.114 267.493H479.551V355.672H598.114V267.493ZM478.226 266.507V178.328H359.663V266.507H478.226ZM479.551 177.343H598.114V89.1642H479.551V177.343ZM478.226 177.343V89.1642H359.663V177.343H478.226ZM598.114 266.507V178.328H479.551V266.507H598.114ZM478.226 267.493V355.672H359.663V267.493H478.226ZM358.338 356.657V444.836H239.775V356.657H358.338ZM358.338 266.507V178.328H239.775V266.507H358.338ZM358.338 177.343V89.1642H239.775V177.343H358.338ZM358.338 267.493V355.672H239.775V267.493H358.338ZM238.451 356.657V444.836H119.888V356.657H238.451ZM238.451 266.507V178.328H119.888V266.507H238.451ZM238.451 177.343V89.1642H119.888V177.343H238.451ZM238.451 267.493V355.672H119.888V267.493H238.451ZM713.001 534H713.958V445.821H713.001V534ZM713.001 444.836H713.958V356.657H713.001V444.836ZM829.928 444.836H714.326V356.657H829.928V444.836ZM712.633 356.657V444.836H597.03V356.657H712.633ZM829.928 177.343V89.1642H714.326V177.343H829.928ZM713.001 177.343V89.1642H713.958V177.343H713.001ZM712.633 177.343V89.1642H597.03V177.343H712.633ZM829.928 178.328H714.326V266.507H829.928V178.328ZM713.001 266.507V178.328H713.958V266.507H713.001ZM712.633 266.507V178.328H597.03V266.507H712.633ZM829.928 267.493H714.326V355.672H829.928V267.493ZM713.001 267.493H713.958V355.672H713.001V267.493ZM712.633 267.493V355.672H597.03V267.493H712.633Z" stroke="#A5A5A5" stroke-opacity="0.07" stroke-width="0.5"/>
</svg>
