<svg width="120" height="40" viewBox="0 0 120 40" fill="none" xmlns="http://www.w3.org/2000/svg">
<path d="M110.1 0H7.5C6.8 0 6.2 0.1 5.5 0.2C4.9 0.3 4.2 0.5 3.6 0.8C3 1.1 2.5 1.5 2 2C1.5 2.5 1.1 3 0.8 3.6C0.5 4.2 0.3 4.9 0.2 5.5C0.1 6.2 0 6.9 0 7.5V32.4C0 33.1 0.1 33.7 0.2 34.4C0.3 35.1 0.5 35.7 0.8 36.3C1.1 37 1.5 37.5 2 38C2.5 38.5 3 38.9 3.6 39.2C4.2 39.5 4.8 39.7 5.5 39.8C6.2 39.9 6.8 40 7.5 40H112.1C112.8 40 113.4 39.9 114.1 39.8C114.8 39.7 115.4 39.5 116 39.2C116.6 38.9 117.1 38.5 117.6 38C118.1 37.5 118.5 37 118.8 36.4C119.1 35.8 119.3 35.2 119.4 34.5C119.5 33.8 119.6 33.2 119.6 32.5V31.6V9.5V8.4V7.5C119.6 6.8 119.5 6.2 119.4 5.5C119.3 4.8 119.1 4.2 118.8 3.6C118.2 2.4 117.2 1.4 116 0.8C115.4 0.5 114.8 0.3 114.1 0.2C113.4 0.1 112.8 0 112.1 0L110.1 0Z" fill="#A6A6A6"/>
<path d="M8.39999 39.0999H7.49999C6.89999 39.0999 6.19999 38.9999 5.59999 38.8999C4.99999 38.7999 4.49999 38.5999 3.89999 38.3999C3.39999 38.0999 2.89999 37.7999 2.49999 37.3999C2.09999 36.9999 1.69999 36.4999 1.49999 35.9999C1.19999 35.4999 1.09999 34.8999 0.999988 34.2999C0.899988 33.6999 0.799988 33.0999 0.799988 32.3999V8.3999V7.4999C0.799988 6.8999 0.899988 6.1999 0.999988 5.5999C1.09999 5.0999 1.29999 4.4999 1.59999 3.9999C1.89999 3.4999 2.19999 2.9999 2.59999 2.5999C2.99999 2.1999 3.49999 1.8999 3.99999 1.5999C4.49999 1.2999 5.09999 1.1999 5.69999 1.0999C6.29999 0.999902 6.89999 0.899902 7.59999 0.899902H112.2C112.8 0.899902 113.4 0.999902 114.1 1.0999C114.7 1.1999 115.2 1.3999 115.8 1.5999C116.8 2.0999 117.7 2.9999 118.2 3.9999C118.5 4.4999 118.6 5.0999 118.7 5.5999C118.8 6.1999 118.9 6.8999 118.9 7.4999V32.3999C118.9 32.9999 118.8 33.5999 118.7 34.2999C118.6 34.8999 118.4 35.3999 118.2 35.9999C117.9 36.4999 117.6 36.9999 117.2 37.3999C116.8 37.7999 116.3 38.1999 115.8 38.3999C115.3 38.6999 114.7 38.8999 114.1 38.8999C113.5 38.9999 112.9 39.0999 112.2 39.0999H8.39999Z" fill="black"/>
<path d="M24.8 20.3C24.8 18.6 25.7 17 27.2 16.1C26.3 14.8 24.8 14 23.2 13.9C21.5 13.7 19.9 14.9 19 14.9C18.1 14.9 16.8 13.9 15.4 13.9C13.5 14 11.8 15 10.9 16.6C9.00002 19.9 10.4 24.9 12.3 27.6C13.2 28.9 14.3 30.4 15.7 30.4C17.1 30.3 17.6 29.5 19.3 29.5C21 29.5 21.4 30.4 22.9 30.4C24.4 30.4 25.3 29.1 26.2 27.7C26.9 26.8 27.4 25.7 27.7 24.6C25.9 24 24.8 22.2 24.8 20.3ZM22 12.2C22.8 11.2 23.2 9.99995 23.1 8.69995C21.9 8.79995 20.7 9.39995 19.9 10.4C19.1 11.3 18.7 12.5 18.8 13.8C20.1 13.8 21.2 13.2 22 12.2ZM42.3 27.1H37.6L36.5 30.5H34.5L39 18.1H41L45.5 30.5H43.5L42.3 27.1ZM38.1 25.6H41.9L40 20.1H39.9L38.1 25.6ZM55.2 26C55.2 28.7999 53.7 30.6 51.4 30.6C50.2 30.7 49.1 30 48.6 29V33.5H46.7V21.5H48.5V23C49.1 22 50.2 21.4 51.4 21.4C53.6 21.3 55.2 23.2 55.2 26ZM53.2 26C53.2 24.2 52.3 23 50.8 23C49.4 23 48.4 24.2 48.4 26C48.4 27.7999 49.4 29 50.8 29C52.3 29 53.2 27.7999 53.2 26ZM65.1 26C65.1 28.7999 63.6 30.6 61.3 30.6C60.1 30.7 59 30 58.5 29V33.5H56.6V21.5H58.4V23C59 22 60.1 21.4 61.3 21.4C63.6 21.3 65.1 23.2 65.1 26ZM63.2 26C63.2 24.2 62.3 23 60.8 23C59.4 23 58.4 24.2 58.4 26C58.4 27.7999 59.4 29 60.8 29C62.3 29 63.2 27.7999 63.2 26ZM71.7 27C71.8 28.2 73 29 74.7 29C76.3 29 77.4 28.2 77.4 27.1C77.4 26.1 76.7 25.6 75.1 25.2L73.5 24.7999C71.2 24.2999 70.2 23.2 70.2 21.5C70.2 19.4 72.1 17.9 74.7 17.9C77.3 17.9 79.1 19.4 79.2 21.5H77.3C77.2 20.3 76.2 19.5 74.7 19.5C73.2 19.5 72.2 20.3 72.2 21.4C72.2 22.3 72.9 22.8 74.5 23.2L75.9 23.5C78.4 24.1 79.5 25.1 79.5 26.9C79.5 29.2 77.7 30.7 74.7 30.7C71.9 30.7 70.1 29.2999 70 27H71.7ZM83.3 19.3V21.4H85V22.9H83.3V27.9C83.3 28.7 83.6 29 84.4 29H85V30.5C84.7 30.6 84.3 30.6 84 30.6C82.2 30.6 81.5 29.9 81.5 28.2V23H80.2V21.5H81.5V19.4H83.3V19.3ZM86.1 26C86.1 23.2 87.8 21.4 90.4 21.4C93 21.4 94.7 23.2 94.7 26C94.7 28.9 93 30.6 90.4 30.6C87.7 30.6 86.1 28.7999 86.1 26ZM92.8 26C92.8 24 91.9 22.9 90.4 22.9C88.9 22.9 88 24 88 26C88 28 88.9 29.1 90.4 29.1C91.9 29.1 92.8 27.9 92.8 26ZM96.2 21.4H98V23C98.2 22 99.2 21.3 100.2 21.4C100.4 21.4 100.6 21.4 100.8 21.5V23.2C100.5 23.1 100.2 23.1 100 23.1C99 23.1 98.1 23.9 98.1 24.9V30.6H96.2V21.4ZM109.4 27.7999C109.2 29.4 107.6 30.6 105.5 30.6C102.9 30.6 101.2 28.7999 101.2 26C101.2 23.2 102.8 21.3 105.4 21.3C107.9 21.3 109.5 22.9999 109.5 25.7999V26.4H103.1V26.5C103 27.7999 103.9 28.9 105.2 29.1H105.5C106.4 29.2 107.3 28.6999 107.6 27.7999H109.4ZM103.1 25.1H107.6C107.7 23.9 106.7 22.9 105.5 22.8H105.3C104.1 22.8 103.1 23.8 103.1 25.1Z" fill="white"/>
<path d="M37.8 8.6999C39.3 8.5999 40.5 9.6999 40.6 11.0999V11.5999C40.6 13.4999 39.6 14.5999 37.8 14.5999H35.6V8.5999L37.8 8.6999ZM36.6 13.8999H37.7C38.7 13.9999 39.6 13.1999 39.7 12.0999V11.6999C39.8 10.6999 39.1 9.6999 38.1 9.5999H36.6V13.8999ZM41.7 12.3999C41.6 11.1999 42.5 10.1999 43.6 10.0999C44.8 9.9999 45.8 10.8999 45.9 11.9999V12.3999C46 13.5999 45.2 14.5999 44 14.6999C42.8 14.7999 41.8 13.9999 41.7 12.7999V12.3999ZM45 12.3999C45 11.3999 44.6 10.8999 43.8 10.8999C43 10.8999 42.6 11.4999 42.6 12.3999C42.6 13.3999 43 13.9999 43.8 13.9999C44.6 13.9999 45 13.3999 45 12.3999ZM51.6 14.6999H50.7L49.8 11.3999H49.7L48.8 14.6999H47.9L46.7 10.1999H47.6L48.4 13.5999H48.5L49.4 10.1999H50.3L51.2 13.5999H51.3L52.1 10.1999H53L51.6 14.6999ZM53.9 10.1999H54.8V10.8999H54.9C55.1 10.3999 55.7 10.0999 56.2 10.0999C57 9.9999 57.7 10.5999 57.8 11.4999V14.6999H56.9V11.9999C56.9 11.2999 56.6 10.8999 55.9 10.8999C55.3 10.8999 54.8 11.2999 54.8 11.8999V14.6999H53.9V10.1999ZM59.1 8.3999H60V14.6999H59.1V8.3999ZM61.2 12.3999C61.1 11.1999 61.9 10.1999 63.1 10.0999C64.3 9.9999 65.3 10.7999 65.4 11.9999V12.3999C65.5 13.5999 64.7 14.5999 63.5 14.6999C62.3 14.7999 61.3 13.9999 61.2 12.7999V12.3999ZM64.6 12.3999C64.6 11.3999 64.2 10.8999 63.4 10.8999C62.6 10.8999 62.2 11.4999 62.2 12.3999C62.2 13.3999 62.6 13.9999 63.4 13.9999C64.1 13.9999 64.6 13.3999 64.6 12.3999ZM66.4 13.3999C66.4 12.5999 67 12.0999 68.1 12.0999L69.3 11.9999V11.5999C69.3 11.0999 69 10.8999 68.4 10.8999C67.9 10.8999 67.6 11.0999 67.5 11.3999H66.6C66.7 10.5999 67.4 10.0999 68.4 10.0999C69.5 10.0999 70.2 10.6999 70.2 11.5999V14.6999H69.3V14.0999H69.2C68.9 14.5999 68.4 14.7999 67.8 14.7999C67.1 14.8999 66.4 14.2999 66.3 13.5999C66.4 13.4999 66.4 13.4999 66.4 13.3999ZM69.3 12.9999V12.5999L68.2 12.6999C67.6 12.6999 67.3 12.9999 67.3 13.2999C67.3 13.6999 67.7 13.8999 68.1 13.8999C68.7 14.0999 69.2 13.6999 69.3 12.9999C69.3 13.0999 69.3 13.0999 69.3 12.9999ZM71.3 12.3999C71.3 10.9999 72 10.0999 73.2 10.0999C73.8 10.0999 74.3 10.3999 74.6 10.8999H74.7V8.3999H75.6V14.6999H74.7V13.9999H74.6C74.3 14.4999 73.8 14.7999 73.2 14.7999C72.1 14.7999 71.3 13.8999 71.3 12.3999ZM72.3 12.3999C72.3 13.3999 72.7 13.8999 73.5 13.8999C74.3 13.8999 74.7 13.2999 74.7 12.3999C74.7 11.4999 74.2 10.8999 73.5 10.8999C72.7 10.8999 72.3 11.4999 72.3 12.3999ZM79.2 12.3999C79.1 11.1999 79.9 10.1999 81.1 10.0999C82.3 9.9999 83.3 10.7999 83.4 11.9999V12.3999C83.5 13.5999 82.7 14.5999 81.5 14.6999C80.3 14.7999 79.3 13.9999 79.2 12.7999V12.3999ZM82.6 12.3999C82.6 11.3999 82.2 10.8999 81.4 10.8999C80.6 10.8999 80.2 11.4999 80.2 12.3999C80.2 13.3999 80.6 13.9999 81.4 13.9999C82.1 13.9999 82.6 13.3999 82.6 12.3999ZM84.7 10.1999H85.6V10.8999H85.7C85.9 10.3999 86.5 10.0999 87 10.0999C87.8 9.9999 88.5 10.5999 88.6 11.4999V14.6999H87.7V11.9999C87.7 11.2999 87.4 10.8999 86.7 10.8999C86.1 10.8999 85.6 11.2999 85.6 11.8999V14.6999H84.7V10.1999ZM93.5 9.0999V10.1999H94.5V10.9999H93.5V13.2999C93.5 13.7999 93.7 13.9999 94.1 13.9999H94.4V14.6999H93.9C92.9 14.6999 92.5 14.3999 92.5 13.4999V10.9999H91.8V10.2999H92.5V9.0999H93.5ZM95.7 8.3999H96.6V10.8999H96.7C96.9 10.3999 97.5 9.9999 98.1 10.0999C98.9 10.0999 99.6 10.6999 99.7 11.4999V14.6999H98.8V11.9999C98.8 11.2999 98.5 10.8999 97.8 10.8999C97.2 10.8999 96.7 11.2999 96.7 11.8999V14.6999H95.8V8.3999H95.7ZM104.8 13.4999C104.6 14.2999 103.7 14.8999 102.9 14.7999C101.8 14.7999 100.8 13.8999 100.8 12.7999V12.4999C100.6 11.3999 101.4 10.2999 102.6 10.1999H102.9C104.2 10.1999 104.9 11.0999 104.9 12.4999V12.7999H101.7V12.8999C101.6 13.5999 102.1 14.0999 102.8 14.1999H102.9C103.3 14.2999 103.8 13.9999 104 13.6999H104.8V13.4999ZM101.6 11.9999H103.9C103.9 11.3999 103.5 10.8999 102.9 10.7999H102.8C102.2 10.8999 101.6 11.3999 101.6 11.9999Z" fill="white"/>
</svg>
