<svg width="18" height="18" viewBox="0 0 18 18" fill="none" xmlns="http://www.w3.org/2000/svg">
<g id="Group 7">
<path id="Vector" d="M9 18C4.02943 18 0 13.9705 0 9C0 4.02943 4.02943 0 9 0C13.9705 0 18 4.02943 18 9C18 13.9705 13.9705 18 9 18ZM6.075 6.74994H10.3414L5.60009 11.4454C5.3352 11.7077 5.33312 12.1351 5.59543 12.3999C5.85776 12.6649 6.28514 12.667 6.55002 12.4046L11.25 7.75017V11.9249C11.25 12.2977 11.5522 12.5999 11.925 12.5999C12.2978 12.5999 12.6 12.2977 12.6 11.9249V6.07494C12.6 5.70215 12.2978 5.39994 11.925 5.39994H6.075C5.70221 5.39994 5.4 5.70215 5.4 6.07494C5.4 6.44774 5.70221 6.74994 6.075 6.74994Z" fill="#15CF74"/>
</g>
</svg>
