<svg width="733" height="543" viewBox="0 0 733 543" fill="none" xmlns="http://www.w3.org/2000/svg">
<path d="M370.011 542V452.5H461.486V542M368.989 542V452.5H277.514V542M370.011 0V89.5H461.486V0M368.989 0V89.5H277.514V0M276.492 542V452.5H185.017V542M276.492 0V89.5H185.017V0M183.995 542V452.5H92.5193V542M183.995 0V89.5H92.5193V0M0.0220947 362H91.4973V451.5H0.0220947M91.4973 542V452.5H0.0220947M0.0220947 270.5H91.4973V181H0.0220947M0.0220947 180H91.4973V90.5H0.0220947M0.0220947 271.5H91.4973V361H0.0220947M91.4973 0V89.5H0.0220947M460.65 542V452.5H549.841V542M551.147 542V452.5H640.339V542M640.339 0V89.5H551.147V0M550.125 0V89.5H550.864V0M549.841 0V89.5H460.65V0M641.503 542V452.5H732.978V542M732.978 0V89.5H641.503V0M461.486 362V451.5H370.011V362H461.486ZM368.989 362V451.5H277.514V362H368.989ZM461.486 271.5H370.011V361H461.486V271.5ZM368.989 270.5V181H277.514V270.5H368.989ZM370.011 180H461.486V90.5H370.011V180ZM368.989 180V90.5H277.514V180H368.989ZM461.486 270.5V181H370.011V270.5H461.486ZM368.989 271.5V361H277.514V271.5H368.989ZM276.492 362V451.5H185.017V362H276.492ZM276.492 270.5V181H185.017V270.5H276.492ZM276.492 180V90.5H185.017V180H276.492ZM276.492 271.5V361H185.017V271.5H276.492ZM183.995 362V451.5H92.5193V362H183.995ZM183.995 270.5V181H92.5193V270.5H183.995ZM183.995 180V90.5H92.5193V180H183.995ZM183.995 271.5V361H92.5193V271.5H183.995ZM550.125 542H550.864V452.5H550.125V542ZM550.125 451.5H550.864V362H550.125V451.5ZM640.339 451.5H551.147V362H640.339V451.5ZM549.841 362V451.5H460.65V362H549.841ZM640.339 180V90.5H551.147V180H640.339ZM550.125 180V90.5H550.864V180H550.125ZM549.841 180V90.5H460.65V180H549.841ZM640.339 181H551.147V270.5H640.339V181ZM550.125 270.5V181H550.864V270.5H550.125ZM549.841 270.5V181H460.65V270.5H549.841ZM640.339 271.5H551.147V361H640.339V271.5ZM550.125 271.5H550.864V361H550.125V271.5ZM549.841 271.5V361H460.65V271.5H549.841ZM732.978 451.5H641.503V362H732.978V451.5ZM732.978 180V90.5H641.503V180H732.978ZM732.978 181H641.503V270.5H732.978V181ZM732.978 271.5H641.503V361H732.978V271.5Z" stroke="url(#paint0_linear_26_1048)" stroke-opacity="0.04"/>
<defs>
<linearGradient id="paint0_linear_26_1048" x1="366" y1="-58.5" x2="178.5" y2="554.5" gradientUnits="userSpaceOnUse">
<stop stop-color="white" stop-opacity="0.73"/>
<stop offset="1" stop-color="white" stop-opacity="0.66"/>
</linearGradient>
</defs>
</svg>
