<svg width="635" height="358" viewBox="0 0 635 358" fill="none" xmlns="http://www.w3.org/2000/svg">
<path d="M320.542 357V298.049H399.792V357M319.656 357V298.049H240.406V357M320.542 0V58.9511H399.792V0M319.656 0V58.9511H240.406V0M239.521 357V298.049H160.271V357M239.521 0V58.9511H160.271V0M159.385 357V298.049H80.1354V357M159.385 0V58.9511H80.1354V0M0 238.439H79.25V297.39H0M79.25 357V298.049H0M0 178.171H79.25V119.22H0M0 118.561H79.25V59.6098H0M0 178.829H79.25V237.78H0M79.25 0V58.9511H0M399.068 357V298.049H476.339V357M477.47 357V298.049H554.742V357M554.742 0V58.9511H477.47V0M476.585 0V58.9511H477.224V0M476.339 0V58.9511H399.068V0M635 297.39H555.75V238.439H635M555.75 357V298.049H635M635 118.561H555.75V59.6098H635M635 119.22H555.75V178.171H635M635 178.829H555.75V237.78H635M635 58.9511H555.75V0M399.792 238.439V297.39H320.542V238.439H399.792ZM319.656 238.439V297.39H240.406V238.439H319.656ZM399.792 178.829H320.542V237.78H399.792V178.829ZM319.656 178.171V119.22H240.406V178.171H319.656ZM320.542 118.561H399.792V59.6098H320.542V118.561ZM319.656 118.561V59.6098H240.406V118.561H319.656ZM399.792 178.171V119.22H320.542V178.171H399.792ZM319.656 178.829V237.78H240.406V178.829H319.656ZM239.521 238.439V297.39H160.271V238.439H239.521ZM239.521 178.171V119.22H160.271V178.171H239.521ZM239.521 118.561V59.6098H160.271V118.561H239.521ZM239.521 178.829V237.78H160.271V178.829H239.521ZM159.385 238.439V297.39H80.1354V238.439H159.385ZM159.385 178.171V119.22H80.1354V178.171H159.385ZM159.385 118.561V59.6098H80.1354V118.561H159.385ZM159.385 178.829V237.78H80.1354V178.829H159.385ZM476.585 357H477.224V298.049H476.585V357ZM476.585 297.39H477.224V238.439H476.585V297.39ZM554.742 297.39H477.47V238.439H554.742V297.39ZM476.339 238.439V297.39H399.068V238.439H476.339ZM554.742 118.561V59.6098H477.47V118.561H554.742ZM476.585 118.561V59.6098H477.224V118.561H476.585ZM476.339 118.561V59.6098H399.068V118.561H476.339ZM554.742 119.22H477.47V178.171H554.742V119.22ZM476.585 178.171V119.22H477.224V178.171H476.585ZM476.339 178.171V119.22H399.068V178.171H476.339ZM554.742 178.829H477.47V237.78H554.742V178.829ZM476.585 178.829H477.224V237.78H476.585V178.829ZM476.339 178.829V237.78H399.068V178.829H476.339Z" stroke="#1C1C1C" stroke-opacity="0.03"/>
</svg>
