<svg width="414" height="419" viewBox="0 0 414 419" fill="none" xmlns="http://www.w3.org/2000/svg">
<path d="M413.5 123C413.5 209.433 384.656 279.5 298.5 279.5C212.344 279.5 142.5 209.433 142.5 123C142.5 36.5674 212.344 0 298.5 0C384.656 0 413.5 36.5674 413.5 123Z" fill="url(#paint0_linear_22_714)" fill-opacity="0.53"/>
<path d="M358.5 208C358.5 294.433 310.156 378.5 224 378.5C137.844 378.5 0 236.933 0 150.5C0 64.0674 116.344 51.5 202.5 51.5C288.656 51.5 358.5 121.567 358.5 208Z" fill="url(#paint1_linear_22_714)" fill-opacity="0.53"/>
<g filter="url(#filter0_d_22_714)">
<path d="M175.444 395.812C172.46 392.331 167.585 390.938 163.009 391.236C158.433 391.634 154.852 393.624 150.773 395.912C147.291 397.902 146.098 400.986 141.919 402.478L138.438 403.473C138.835 403.671 140.626 404.567 141.123 404.666C150.574 405.96 160.124 405.462 169.674 405.064C172.261 404.965 175.345 404.567 176.638 402.279C177.832 400.19 176.937 397.603 175.444 395.812Z" fill="#172F35"/>
<path d="M297.01 143.728C296.413 134.576 295.219 125.424 296.811 116.371C291.141 115.774 285.47 115.177 279.8 114.481C278.507 120.45 277.014 126.319 275.323 132.188C274.925 131.293 274.527 130.497 274.129 129.602C271.841 124.23 270.349 118.559 268.26 113.088C266.171 107.617 263.385 102.245 258.909 98.4644C257.317 97.0716 255.129 95.8778 253.039 96.3753C251.746 96.7732 250.652 97.768 249.856 98.7628C247.469 101.747 245.976 105.329 244.882 109.009C243.191 114.879 242.395 121.245 243.788 127.214C246.573 138.754 256.621 146.912 262.59 157.158C264.181 159.943 265.872 162.033 267.365 164.918C270.051 170.19 269.852 171.284 271.244 173.572C274.03 178.049 280.894 179.342 286.067 178.148C290.743 177.154 291.34 174.766 293.329 170.389C297.408 162.431 297.507 152.88 297.01 143.728Z" fill="#A6BEBD"/>
<path d="M283.878 118.858C283.978 118.559 283.779 118.261 283.58 118.261C283.282 118.161 282.983 118.36 282.983 118.559C279.004 132.188 276.716 146.215 276.218 160.441C276.119 163.425 276.119 166.708 277.213 169.593C277.313 169.891 277.512 170.289 277.611 170.588C278.109 171.682 278.506 172.677 278.407 173.771C278.407 174.468 277.81 175.263 277.213 175.661C277.014 175.761 276.815 175.86 276.517 175.86C276.815 175.164 277.114 174.468 277.114 173.771C277.114 172.776 276.716 171.583 275.622 171.185C275.323 171.085 274.925 170.986 274.627 170.986C274.428 170.986 274.229 170.986 274.03 170.886C272.538 170.488 272.04 168.499 271.642 166.708C270.25 159.347 266.469 152.88 262.789 146.712L259.705 141.44C259.705 141.838 259.605 142.236 259.506 142.733C259.506 142.833 259.406 142.932 259.406 142.932L261.893 147.11C265.475 153.278 269.155 159.744 270.548 166.808C270.846 168.499 271.443 171.185 273.632 171.782C273.831 171.881 274.129 171.881 274.328 171.881C274.627 171.881 274.826 171.981 275.025 171.981C275.622 172.279 275.92 172.975 275.821 173.672C275.821 174.468 275.423 175.164 275.124 175.96C275.025 176.159 275.124 176.457 275.323 176.656C275.622 176.855 276.019 176.955 276.318 176.955C276.716 176.955 277.014 176.855 277.412 176.656C278.407 176.159 279.103 175.064 279.203 173.97C279.302 172.677 278.805 171.483 278.308 170.289C278.208 169.991 278.009 169.593 277.91 169.295C276.915 166.509 276.915 163.425 277.014 160.54C277.711 146.315 279.899 132.387 283.878 118.858Z" fill="#E8E8E8"/>
<path d="M255.725 154.074C258.511 139.649 259.605 124.926 258.61 110.303C260.699 116.072 262.789 121.942 263.385 128.11C264.281 137.361 261.495 146.812 255.725 154.074Z" fill="#172F35"/>
<path d="M280.894 121.245C282.486 122.34 284.376 122.937 286.266 123.036C288.654 123.136 291.041 122.439 293.13 121.444C294.423 120.847 295.717 119.952 296.214 118.559C296.513 117.664 296.314 116.57 296.214 115.674C295.916 114.182 295.717 112.69 295.418 111.198C295.319 110.7 295.219 110.104 294.921 109.706C294.523 109.208 293.727 109.009 293.031 108.91C290.245 108.512 287.36 108.611 284.575 109.208C282.784 109.606 280.894 110.303 280.098 111.894C279.7 112.69 279.7 113.486 279.601 114.282C279.501 115.575 279.402 116.968 279.302 118.261C279.302 118.758 279.203 119.256 279.402 119.753C279.7 120.45 280.297 120.947 280.894 121.245Z" fill="#172F35"/>
<path d="M286.564 92.396C286.863 92.4955 287.161 92.396 287.36 92.2965C289.151 91.6997 290.842 91.1028 292.633 90.4064C290.643 87.1235 288.256 84.1391 285.57 81.4531C285.769 84.736 285.968 88.0189 286.167 91.2022C286.067 91.6996 286.167 92.1971 286.564 92.396Z" fill="#FEE5CE"/>
<path d="M284.774 105.527H269.752C268.857 105.527 268.16 104.831 268.16 103.936V73.6936C268.16 72.7983 268.857 72.1019 269.752 72.1019H284.774C285.669 72.1019 286.365 72.7983 286.365 73.6936V103.936C286.365 104.831 285.669 105.527 284.774 105.527Z" fill="#A6BEBD"/>
<path d="M269.852 103.339C270.25 104.135 271.344 104.234 272.239 104.334C275.721 104.433 279.203 104.035 282.585 103.737C282.983 103.737 283.381 103.637 283.68 103.438C283.978 103.14 284.077 102.742 284.177 102.344C285.47 96.3752 285.868 90.3069 285.172 84.2385C280.596 83.8406 275.92 83.3432 271.344 82.9453C270.747 82.8458 270.051 82.8458 269.653 83.2437C269.255 83.6416 269.255 84.2385 269.255 84.8354C269.354 90.6053 269.454 96.4747 269.653 102.245C269.653 102.642 269.653 103.04 269.852 103.339Z" fill="#172F35"/>
<path d="M294.025 108.91C294.025 104.234 293.926 96.2758 293.827 91.8986C293.827 89.6106 292.036 88.6158 290.146 88.1184C288.355 87.621 269.752 83.8407 269.752 83.7412C269.553 84.736 269.951 85.6313 270.548 86.4272C271.145 87.223 271.941 87.7204 272.737 88.3173C271.841 88.9142 270.946 89.6106 270.25 90.4064C269.553 91.2023 269.056 92.2966 269.155 93.3908C269.255 94.4851 269.951 95.5794 270.946 95.7784C270.349 96.5742 269.653 97.4696 269.553 98.5639C269.454 99.5587 270.25 100.752 271.344 100.653C270.946 101.946 270.747 103.239 270.747 104.533C273.234 105.627 275.224 108.114 275.721 110.8C276.318 110.8 276.915 110.303 277.213 109.805C277.213 109.805 277.213 109.706 277.313 109.706C278.904 111.198 280.596 112.491 281.789 114.182C285.968 114.779 290.245 114.381 294.025 112.591C294.025 111.496 294.025 110.203 294.025 108.91Z" fill="#FEE5CE"/>
<path d="M255.825 195.259H180.916V211.176H255.825V195.259Z" fill="#172F35"/>
<path d="M258.511 98.9617C258.113 97.5689 257.715 96.1762 256.72 95.0819C254.631 92.9928 251.249 93.3907 248.264 92.9928C242.793 92.3959 238.117 88.6157 234.934 84.0395C224.19 88.9141 211.556 89.9089 201.906 82.1494C200.911 83.1442 199.817 83.9401 198.723 84.8354C193.052 89.1131 186.387 91.799 179.523 93.7887C177.136 94.485 174.649 95.1814 172.957 96.972C169.973 100.155 170.769 105.129 171.664 109.407C177.335 136.764 177.036 165.315 170.968 192.573C169.973 197.05 172.957 201.427 177.434 202.322C204.692 207.296 232.944 206.202 259.705 198.94C251.547 166.509 267.365 131.392 258.511 98.9617Z" fill="#A6BEBD"/>
<path d="M219.415 120.848C213.446 122.738 207.079 123.434 200.911 122.937C200.911 120.549 200.911 118.062 200.911 115.675C207.079 115.177 213.148 114.381 219.315 113.287C219.315 115.774 219.415 118.361 219.415 120.848Z" fill="white"/>
<path d="M219.315 89.113C223.991 94.1865 224.19 101.847 224.09 108.711C223.494 142.136 223.792 175.562 224.687 208.888C227.672 208.589 230.656 208.39 233.641 208.092C232.944 176.756 232.248 145.32 231.552 113.983C231.353 105.428 231.154 96.773 228.866 88.6156C225.583 88.914 222.499 89.0135 219.315 89.113Z" fill="#172F35"/>
<path d="M229.562 167.504C228.766 150.294 227.871 132.487 229.263 114.879C229.96 105.229 228.07 97.6684 225.981 89.8094C225.682 89.9089 225.284 89.9089 224.986 90.0084C227.075 97.7679 228.965 105.328 228.269 114.779C226.975 132.487 227.771 150.294 228.567 167.504C228.866 173.075 229.065 178.745 229.263 184.416C229.562 191.578 229.761 198.94 228.766 206.103C228.766 206.401 228.965 206.6 229.164 206.699C229.164 206.699 229.164 206.699 229.263 206.699C229.562 206.699 229.761 206.5 229.761 206.301C230.756 199.039 230.557 191.578 230.258 184.416C230.059 178.845 229.761 173.075 229.562 167.504Z" fill="#A6BEBD"/>
<path d="M199.021 84.6364C204.592 89.0136 211.456 91.6001 218.52 91.998C225.583 92.3959 232.646 90.7047 238.714 87.0239C237.222 85.7307 236.128 84.139 235.431 82.3484C230.258 84.6364 224.588 86.1286 219.017 85.6312C213.446 85.1338 207.776 82.5473 204.493 77.9712C203.299 80.6572 201.309 82.9452 199.021 84.6364Z" fill="#172F35"/>
<path d="M224.091 288.274C222.3 288.274 215.336 288.274 213.546 288.274C200.215 288.274 189.372 310.756 189.372 338.412C189.372 366.167 200.215 388.55 213.546 388.55C215.336 388.55 222.3 388.55 224.091 388.55C237.421 388.55 248.264 366.068 248.264 338.412C248.264 310.657 237.421 288.274 224.091 288.274Z" fill="#172F35"/>
<path d="M208.472 373.728C214.735 373.728 219.813 357.916 219.813 338.412C219.813 318.908 214.735 303.096 208.472 303.096C202.209 303.096 197.131 318.908 197.131 338.412C197.131 357.916 202.209 373.728 208.472 373.728Z" fill="#A6BEBD"/>
<path d="M205.985 360.994C211.204 360.994 215.436 347.722 215.436 331.349C215.436 314.976 211.204 301.704 205.985 301.704C200.766 301.704 196.534 314.976 196.534 331.349C196.534 347.722 200.766 360.994 205.985 360.994Z" fill="#172F35"/>
<path d="M292.931 243.01C282.983 230.475 268.061 221.92 252.144 219.632C236.227 217.344 219.514 221.423 206.482 230.774C201.807 234.156 197.43 238.235 195.142 243.507C191.759 251.267 193.251 260.22 194.843 268.477C199.021 290.462 203.1 312.448 207.278 334.433C207.776 337.019 208.273 339.606 209.865 341.695C211.854 344.48 215.336 345.774 218.619 346.669C242.992 353.633 269.056 348.659 293.926 343.585C298.9 342.59 304.471 341.198 307.356 336.92C308.948 334.632 309.445 331.747 309.843 328.961C311.833 314.935 311.833 300.609 309.843 286.583C307.654 271.064 302.78 255.445 292.931 243.01Z" fill="#172F35"/>
<path d="M210.163 268.776C206.582 259.822 201.409 248.68 191.461 245.895C183.104 243.607 173.952 247.984 168.381 254.649C162.81 261.314 160.224 269.969 158.135 278.425C152.663 301.107 153.857 325.48 161.617 347.465C181.712 349.653 198.027 350.947 219.116 350.051C220.41 349.952 220.509 326.972 220.41 324.783C220.211 316.228 219.415 307.673 218.022 299.217C216.331 289.269 214.142 278.923 210.362 269.372C210.362 269.173 210.263 268.975 210.163 268.776Z" fill="#FF1F3F"/>
<path d="M209.964 274.744C214.441 285.787 214.341 298.321 211.755 310.06C209.268 321.699 204.493 332.742 199.718 343.784C198.922 345.575 197.43 347.863 195.54 347.266C194.147 346.868 193.55 345.177 193.152 343.784C190.466 332.941 187.681 322.097 186.686 310.955C185.691 299.813 186.586 288.373 190.864 278.027C192.257 274.645 194.147 271.362 197.131 269.372C200.116 267.383 204.592 267.084 207.179 269.571L209.964 274.744Z" fill="#172F35"/>
<path d="M232.049 345.077C223.593 344.182 214.341 342.789 208.671 336.422C207.577 339.904 209.168 343.784 211.655 346.47C214.242 349.057 217.724 350.549 221.106 351.842C246.076 360.994 273.632 359.104 299.895 354.926C301.188 351.146 296.91 356.12 298.204 352.339C275.124 359.005 255.924 347.763 232.049 345.077Z" fill="#FF1F3F"/>
<path d="M139.532 354.627C152.464 363.879 168.978 367.759 184.199 363.083C170.172 356.517 154.951 352.837 139.532 354.627Z" fill="#172F35"/>
<path d="M175.146 376.215C175.842 368.853 176.539 361.491 177.235 354.13C167.983 354.528 158.732 353.931 149.579 352.439C149.082 359.203 148.087 365.968 146.694 372.633C156.145 373.827 165.596 375.021 175.146 376.215Z" fill="white"/>
<path d="M335.807 268.676C330.038 255.047 326.755 240.423 324.865 225.8C322.676 208.49 322.477 190.882 322.278 173.473C308.948 172.08 295.418 173.174 282.486 176.756C291.34 209.485 301.984 243.408 321.184 272.954C326.058 271.76 330.933 270.268 335.807 268.676Z" fill="#FF8888"/>
<path d="M165.297 365.073C168.381 365.57 171.465 366.963 173.455 369.45C176.937 373.628 176.738 379.697 176.041 385.068C175.345 390.44 174.45 396.21 176.837 401.085C164.402 401.085 151.967 401.582 139.631 402.776C138.338 394.022 138.835 384.671 143.213 376.911C147.689 369.152 156.543 363.581 165.297 365.073Z" fill="#0C4E5F"/>
<path d="M162.014 364.078C160.423 364.277 158.831 364.675 157.936 366.068C157.538 366.764 157.339 367.659 157.239 368.455C156.543 374.325 157.14 380.293 159.03 385.765C159.329 386.66 159.726 387.556 160.522 387.854C161.02 388.053 161.716 388.053 162.213 388.053C166.093 387.854 170.072 388.451 173.753 389.844C173.355 384.074 173.554 378.204 174.35 372.435C174.549 370.843 174.848 369.152 173.952 367.858C173.455 367.063 172.659 366.565 171.863 366.068C168.978 364.377 165.397 363.68 162.014 364.078Z" fill="#FF1F3F"/>
<path d="M145.003 378.602C145.799 377.607 146.993 376.613 148.286 376.812C149.38 377.011 150.176 377.906 150.674 378.901C151.768 380.89 151.967 383.178 152.564 385.267C153.061 387.456 154.056 389.645 155.847 390.938C152.464 393.723 148.386 395.713 144.108 396.608C143.312 396.807 142.417 396.907 141.521 396.807C140.726 396.608 139.83 396.111 139.532 395.315C139.233 394.619 139.432 393.922 139.532 393.226C140.626 388.053 141.621 382.582 145.003 378.602Z" fill="#A6BEBD"/>
<path d="M177.832 396.012C177.633 392.032 176.738 387.755 173.654 385.367C169.973 382.482 164.601 383.079 160.423 385.168C157.239 386.76 154.454 389.048 151.47 391.038C148.485 393.027 145.103 394.619 141.621 394.619C140.527 394.619 139.233 394.519 138.338 395.116C137.343 395.912 137.144 397.305 137.144 398.598C137.144 399.991 137.144 401.582 138.04 402.677C139.034 403.871 140.626 404.169 142.218 404.268C151.867 405.263 161.617 404.666 171.366 404.07C172.758 403.97 174.251 403.871 175.444 403.075C177.633 401.682 177.931 398.598 177.832 396.012Z" fill="#FF8888"/>
<path d="M243.987 40.1686C247.071 51.012 245.081 63.2481 238.515 72.4999C237.122 74.39 235.531 76.2801 233.342 77.2749C229.363 79.1651 224.687 77.6729 220.609 76.1807C215.933 74.4895 211.158 72.6988 207.776 69.1175C204.592 65.7352 203.001 61.0596 202.304 56.4835C201.409 51.012 201.508 45.0432 204.393 40.2681C207.975 34.2992 215.137 31.3148 222.001 31.0164C228.866 30.7179 235.73 32.6081 242.395 34.4982L243.987 40.1686Z" fill="#172F35"/>
<path d="M236.028 85.6314C235.531 84.935 235.033 84.3382 234.536 83.6418C231.452 78.8667 229.761 73.1963 228.169 67.7249C222.399 67.8243 216.629 67.9238 210.86 68.0233C209.666 72.6989 207.179 76.8771 203.896 80.3589C212.75 87.2231 225.185 87.9195 236.028 85.6314Z" fill="#FEE5CE"/>
<path d="M242.295 52.7032C242.295 52.5043 242.196 52.3053 242.196 52.1063C241.898 50.6141 241.201 48.724 241.898 47.2318C243.091 44.8442 242.892 44.3468 241.301 39.3728L239.609 35.5925C235.63 31.3149 229.661 29.3252 223.892 29.2258C218.022 29.1263 212.352 30.9169 206.98 33.205C205.189 34.0008 203.299 34.9956 202.702 36.7863C202.404 37.8806 202.503 38.9749 202.702 40.0692C203.398 44.4463 204.294 48.724 205.09 53.0017C205.786 56.4835 206.482 59.9653 208.074 63.1487C210.163 67.1279 213.545 70.2118 216.928 73.1963C218.321 74.39 219.713 75.6833 221.305 76.3797C224.488 77.7724 228.269 77.1755 231.353 75.4843C234.337 73.6937 236.625 70.9082 238.316 67.9238C240.206 64.7404 241.5 61.1591 242.295 57.4783C242.693 55.8866 242.594 54.1954 242.295 52.7032Z" fill="#FEE5CE"/>
<path d="M216.928 48.5251C219.116 46.3365 221.802 45.3417 224.787 45.5406C224.886 45.0432 225.085 44.6453 225.483 44.3469C222.101 43.9489 218.619 45.4412 216.331 48.0277C216.53 48.1271 216.729 48.3261 216.928 48.5251Z" fill="#0C4E5F"/>
<path d="M221.802 53.3002C221.504 53.3002 221.206 53.3002 220.907 53.2008C220.708 53.1013 220.509 52.8028 220.41 52.5044C220.211 52.007 220.211 51.4101 220.41 50.8132C220.609 50.3158 220.907 49.8184 221.404 49.52C221.902 49.2215 222.499 49.2215 222.996 49.52C223.593 49.9179 223.693 50.6143 223.792 51.3106C223.792 51.6091 223.892 51.9075 223.693 52.206C223.593 52.5044 223.295 52.8028 222.897 52.9023C222.598 53.2008 222.2 53.2008 221.802 53.3002Z" fill="#0C4E5F"/>
<path d="M223.096 51.1116C222.897 50.8132 222.598 50.5148 222.2 50.6142C221.802 50.7137 221.603 51.1116 221.603 51.5096C221.603 51.808 221.603 52.007 221.603 52.3054C221.703 52.6039 221.902 52.8028 222.101 52.9023C222.499 53.0018 222.996 52.8028 223.096 52.4049C223.394 51.9075 223.295 51.4101 223.096 51.1116Z" fill="#172F35"/>
<path d="M221.405 51.4101C221.504 51.4101 221.703 51.3106 221.703 51.2112C221.902 51.0122 221.902 50.7138 221.703 50.5148C221.603 50.4153 221.405 50.4153 221.305 50.5148C221.206 50.6143 221.106 50.7138 221.007 50.9127C221.106 51.1117 221.206 51.3106 221.405 51.4101Z" fill="white"/>
<path d="M238.117 45.5407C239.311 45.5407 240.306 46.2371 240.803 47.2319C241.002 47.1324 241.201 46.9334 241.102 46.635C241.102 46.3365 240.903 46.1376 240.704 45.8391C240.306 45.4412 239.808 45.0433 239.311 44.7449C238.814 44.4464 238.117 44.3469 237.52 44.5459C237.122 44.6454 236.725 44.8443 236.526 45.2423C236.426 45.4412 236.426 45.7397 236.526 45.9386C237.023 45.6402 237.52 45.5407 238.117 45.5407Z" fill="#0C4E5F"/>
<path d="M237.819 50.9126C237.819 50.5147 237.918 50.1168 238.117 49.8183C238.416 49.3209 238.913 49.0225 239.51 49.122C239.908 49.2214 240.107 49.5199 240.306 49.8183C240.405 50.1168 240.505 50.5147 240.505 50.9126C240.505 51.3105 240.505 51.9074 240.206 52.1064C239.908 52.3054 239.51 52.3054 239.112 52.2059C238.416 52.0069 237.819 51.5095 237.819 50.9126Z" fill="#0C4E5F"/>
<path d="M239.709 50.2163C239.609 50.0173 239.311 49.9178 239.112 50.0173C238.913 50.1168 238.814 50.2163 238.814 50.4152C238.714 50.6142 238.615 50.9126 238.714 51.2111C238.714 51.5095 238.913 51.7085 239.212 51.8079C239.51 51.9074 239.908 51.609 240.007 51.3105C240.107 50.9126 240.007 50.5147 239.709 50.2163Z" fill="#172F35"/>
<path d="M238.814 50.4151C238.913 50.4151 239.013 50.4151 239.112 50.3157C239.212 50.2162 239.311 49.9177 239.112 49.8183C239.013 49.7188 238.913 49.7188 238.814 49.8183C238.714 49.9177 238.615 50.0172 238.615 50.1167C238.615 50.2162 238.714 50.4151 238.814 50.4151Z" fill="white"/>
<path d="M239.709 52.5042C236.526 50.6141 230.656 51.4099 227.274 52.0068C223.792 52.6037 219.614 54.6928 216.53 56.2845C215.635 56.6824 214.739 57.2793 214.341 58.1746C214.142 58.672 214.142 59.2689 214.142 59.8658C214.142 62.7507 214.341 65.6357 214.54 68.5206C214.64 69.4159 214.739 70.4107 215.137 71.3061C215.535 72.2014 216.231 72.8978 216.928 73.4946C218.022 74.4894 219.315 75.3848 220.708 75.8822C222.996 76.678 229.064 77.9713 231.353 77.1754C233.541 76.2801 233.342 76.1806 235.033 74.4894C238.217 71.0076 240.803 67.4263 242.494 63.0492C243.29 61.0595 244.086 57.5777 243.39 56.4834C242.693 55.5881 240.505 53.0016 239.709 52.5042Z" fill="#172F35"/>
<path d="M229.562 52.8027C224.588 53.2006 219.813 55.1902 216.033 58.4731C216.53 63.2481 216.629 67.5258 217.226 72.3009C217.823 73.3952 219.017 74.9869 219.813 75.6833C222.399 77.6729 224.986 78.0708 228.169 78.5682C233.243 79.364 236.625 76.0812 239.411 71.8035C242.196 67.5258 243.39 61.358 243.887 56.2845C239.51 52.5042 235.332 52.3053 229.562 52.8027Z" fill="white"/>
<path d="M216.828 59.9653C212.849 57.8762 210.263 56.3839 207.676 54.8917L206.084 53.9964L206.582 53.1011L208.174 53.9964C210.76 55.3891 213.347 56.8813 217.326 58.9704L216.828 59.9653Z" fill="white"/>
<path d="M208.418 64.7458L207.982 65.6401L217.909 70.4767L218.345 69.5824L208.418 64.7458Z" fill="white"/>
<path d="M212.75 46.6349C217.425 42.8546 233.044 43.75 242.594 43.0536C242.395 42.0588 241.898 41.2629 241.301 39.4723L239.609 35.692C235.63 31.4143 229.661 29.4247 223.892 29.3252C218.022 29.2258 212.352 31.0164 206.98 33.3045C205.189 34.1003 203.299 35.0951 202.702 36.8858C202.404 37.9801 202.503 39.0744 202.702 40.1686C203.398 44.5458 204.294 48.8235 205.09 53.1012C205.786 56.583 206.482 60.0648 208.074 63.2482C208.671 64.442 209.467 65.5363 210.362 66.6305C209.069 58.7716 207.975 51.3105 212.75 46.6349Z" fill="#172F35"/>
<path d="M212.053 16.8901C206.482 18.3823 201.21 21.2672 197.629 25.7439C193.948 30.32 192.257 36.1894 191.56 42.0587C190.963 47.3312 191.262 52.8026 192.953 57.8762C194.744 63.2481 198.325 68.2222 203.398 70.9082C204.294 71.4056 205.189 71.704 206.184 71.505C208.87 71.1071 209.367 68.4211 209.467 66.1331C209.666 60.9601 209.268 55.3891 208.074 50.0172C207.278 46.1374 210.064 42.4566 213.943 42.3572C224.588 41.8598 235.133 41.7603 245.777 40.9644C246.275 40.9644 246.772 40.865 247.17 40.5665C247.568 40.1686 247.667 39.4722 247.667 38.9748C247.667 30.9169 242.693 23.2569 235.63 19.1781C228.567 15.3979 219.912 14.801 212.053 16.8901Z" fill="#FF1F3F"/>
<path d="M205.289 71.9031C204.592 71.9031 203.995 71.7041 203.597 71.3062C203.398 71.1072 203.398 70.8088 203.597 70.6098C203.796 70.4109 204.095 70.4109 204.294 70.6098C204.692 70.9083 205.189 71.0078 205.488 71.0078C206.084 71.0078 206.781 70.6098 207.179 70.1124C207.975 69.2171 208.174 67.8244 208.372 66.5311C208.77 62.7509 208.472 59.0701 207.477 55.3893C207.378 54.9913 207.278 54.5934 207.179 54.1955C206.482 51.5095 205.687 48.7241 206.781 46.237C207.577 44.3469 209.467 42.7552 211.854 41.9594C213.943 41.263 216.231 41.1635 218.42 41.064L241.699 40.1687C243.688 40.0692 245.976 39.9698 247.767 39.0744C248.065 38.9749 248.364 39.0744 248.463 39.2734C248.563 39.5718 248.463 39.8703 248.264 39.9697C246.175 40.9646 243.788 41.064 241.699 41.1635L218.42 42.0589C216.331 42.1583 214.142 42.2578 212.153 42.8547C209.964 43.5511 208.373 44.9438 207.676 46.635C206.681 48.923 207.477 51.5095 208.174 53.9965C208.273 54.3945 208.373 54.7924 208.472 55.1903C209.467 58.9706 209.765 62.8503 209.367 66.6306C209.268 68.0233 208.969 69.615 207.975 70.7093C207.378 71.4057 206.482 71.9031 205.488 71.9031C205.488 71.9031 205.388 71.9031 205.289 71.9031Z" fill="#A6BEBD"/>
<path d="M225.881 17.6859C216.629 15.6963 206.383 19.0787 200.215 26.3408C194.047 33.6029 192.257 44.2473 195.738 53.1011C194.147 45.5406 195.738 37.3831 200.016 31.0164C204.294 24.6496 211.257 20.0735 218.818 18.6808L225.881 17.6859Z" fill="#FF8888"/>
<path d="M183.502 102.543C184.696 101.747 186.487 102.046 187.581 102.941C188.775 103.836 189.471 105.13 190.168 106.423C193.45 113.486 193.948 121.743 192.953 129.502C191.859 137.262 189.372 144.723 186.885 152.184C196.335 157.954 206.184 163.027 216.43 167.206C200.016 170.787 182.408 168.499 167.386 160.938C177.036 144.822 178.628 125.324 181.612 106.721C181.811 105.13 182.209 103.438 183.502 102.543Z" fill="#172F35"/>
<path d="M195.341 187.798C199.718 188.892 204.393 189.788 208.572 187.997C211.954 186.604 214.341 183.62 216.53 180.636C218.719 177.651 220.907 173.771 219.315 170.389C217.823 167.405 214.043 166.509 210.76 165.713C200.613 163.425 190.864 159.247 182.11 153.477C183.502 146.514 186.387 139.948 188.775 133.283C191.162 126.617 193.052 119.554 192.356 112.491C191.66 105.428 187.78 98.3649 181.314 95.3805C179.225 94.3857 176.738 93.8883 174.45 94.5846C171.266 95.5794 169.277 98.5639 167.585 101.449C157.637 119.156 159.229 137.759 153.36 160.142C152.464 163.425 153.36 167.106 155.15 170.091C157.04 173.373 160.721 175.264 164.203 176.756C174.151 181.431 184.597 185.112 195.341 187.798Z" fill="#A6BEBD"/>
<path d="M207.477 180.934C207.179 182.924 207.278 185.311 208.671 186.803C209.666 187.798 210.959 188.296 212.352 188.694C213.546 189.091 214.739 189.489 215.933 189.29C217.226 189.091 218.321 188.296 219.216 187.4C221.504 185.112 223.195 182.227 224.091 179.143C224.588 177.353 224.687 175.363 223.792 173.771C222.996 172.279 221.305 171.284 219.614 170.886C216.729 170.29 213.645 171.384 211.456 173.274C209.268 175.164 207.875 178.049 207.477 180.934Z" fill="#172F35"/>
<path d="M206.98 187.997C206.781 187.997 206.582 187.898 206.482 187.699C205.886 186.604 205.289 186.704 203.896 186.903C202.901 187.102 201.807 187.201 200.613 186.803C196.136 185.311 191.461 184.217 186.984 183.222C182.508 182.227 177.931 181.133 173.554 179.641C165.198 176.855 156.941 172.976 153.061 163.823C152.962 163.525 153.061 163.227 153.36 163.127C153.658 163.028 153.957 163.127 154.056 163.425C157.737 172.279 165.795 175.96 173.952 178.746C178.329 180.238 182.905 181.233 187.283 182.227C191.859 183.222 196.534 184.316 201.011 185.809C202.006 186.107 202.901 186.008 203.796 185.809C205.09 185.61 206.582 185.411 207.477 187.102C207.577 187.4 207.477 187.699 207.278 187.798C207.179 187.898 207.079 187.997 206.98 187.997Z" fill="#E8E8E8"/>
<path d="M156.145 374.424C159.13 372.832 162.512 371.639 165.994 371.539C169.476 371.44 173.057 372.435 175.544 374.723C176.34 375.419 176.837 376.712 176.937 377.906C176.937 378.204 176.539 378.403 176.34 378.204C173.554 375.518 169.873 373.827 165.894 374.026C161.716 374.225 157.637 376.016 154.454 378.602C153.658 378.105 153.559 377.011 154.056 376.215C154.454 375.419 155.25 374.922 156.145 374.424Z" fill="#172F35"/>
<path d="M156.344 378.005C159.329 376.414 162.711 375.22 166.193 375.121C169.675 375.021 173.256 376.016 175.743 378.304C176.539 379 177.036 380.294 177.136 381.487C177.136 381.786 176.738 381.985 176.539 381.786C173.753 379.1 170.072 377.409 166.093 377.608C161.915 377.807 157.836 379.597 154.653 382.184C153.857 381.686 153.758 380.592 154.255 379.796C154.653 379 155.449 378.403 156.344 378.005Z" fill="#172F35"/>
<path d="M154.951 384.273C157.438 381.487 161.119 379.796 164.899 379.498C168.68 379.199 172.46 380.294 175.643 382.482C176.24 382.88 176.837 383.377 177.036 383.974C177.335 384.671 177.036 385.566 176.439 385.765C173.455 383.576 169.774 382.383 166.093 382.283C162.412 382.184 158.732 383.278 155.648 385.268C155.349 385.467 155.051 385.665 154.752 385.467C154.454 385.168 154.653 384.571 154.951 384.273Z" fill="#172F35"/>
<path d="M231.552 206.998H198.424C191.56 208.192 182.707 204.809 177.732 209.087C169.873 215.852 168.182 232.167 169.376 241.816C169.575 243.607 170.072 245.398 171.266 246.691C173.853 249.476 178.528 249.277 182.508 249.277C189.869 249.277 197.33 250.67 204.095 253.356C208.174 254.948 212.451 256.937 216.729 256.042C219.912 255.346 222.3 252.958 224.488 250.77C229.661 245.597 234.834 240.225 237.918 233.957C241.102 227.591 241.898 220.03 238.316 213.962C236.824 211.077 234.337 208.789 231.552 206.998Z" fill="#A6BEBD"/>
<path d="M225.085 218.239C222.996 215.752 220.41 213.066 217.127 213.066C214.739 213.066 212.551 214.459 210.561 215.951C197.131 226.297 187.482 240.722 179.026 255.445C161.219 286.483 147.789 320.008 139.333 354.727C154.454 356.418 169.376 359.303 184 363.282C194.943 325.38 205.985 287.179 225.583 252.958C229.363 246.293 233.641 239.031 232.347 231.47C231.552 226.297 228.368 222.119 225.085 218.239Z" fill="#A6BEBD"/>
<path d="M170.968 246.193C172.858 248.78 176.34 249.874 179.523 249.277C182.706 248.78 185.492 246.89 187.681 244.502C189.869 242.115 191.461 239.429 193.053 236.643C187.283 242.513 179.225 245.995 170.968 246.193Z" fill="#172F35"/>
<path d="M144.605 355.622H144.506C144.207 355.523 144.108 355.224 144.108 355.025C151.569 327.071 163.009 297.824 179.225 265.592C183.303 257.435 187.979 249.078 195.639 244.701C195.937 244.502 196.136 244.303 196.136 243.905C196.136 243.607 196.037 243.308 195.838 243.109L194.545 242.115C193.948 241.617 193.649 240.821 193.649 240.125C193.749 239.329 194.147 238.732 194.843 238.334C197.43 237.041 200.116 236.046 203.001 235.648C201.309 235.25 199.519 235.151 197.728 235.35C197.231 235.35 196.634 235.051 196.435 234.554C196.236 234.057 196.435 233.46 196.833 233.161C198.723 231.769 200.713 230.575 202.802 229.58L184.796 233.062C181.911 233.559 179.026 234.156 176.041 233.758C172.659 233.261 170.172 231.57 169.078 228.983C168.978 228.685 169.078 228.386 169.376 228.287C169.675 228.187 169.973 228.287 170.072 228.585C171.266 231.371 174.052 232.366 176.24 232.664C179.026 233.062 181.911 232.564 184.696 232.067L210.661 227.093C210.959 226.994 211.158 227.193 211.257 227.491C211.357 227.789 211.158 227.988 210.86 228.088C206.084 228.983 201.508 231.072 197.629 234.057C197.529 234.156 197.529 234.256 197.529 234.256C197.529 234.355 197.629 234.455 197.728 234.355C199.618 234.156 201.409 234.355 203.299 234.654C203.796 234.753 204.095 235.151 204.095 235.648C204.095 236.146 203.697 236.544 203.2 236.643C200.414 237.141 197.828 237.936 195.341 239.23C194.943 239.429 194.744 239.827 194.644 240.224C194.644 240.622 194.744 241.12 195.142 241.319L196.435 242.314C196.932 242.712 197.231 243.308 197.131 244.005C197.131 244.701 196.733 245.199 196.136 245.596C188.675 249.874 184.099 258.032 180.12 266.09C164.004 298.321 152.464 327.469 145.103 355.324C145.003 355.423 144.804 355.622 144.605 355.622Z" fill="#E8E8E8"/>
<path d="M356.101 209.982C353.813 202.621 351.326 194.861 345.855 189.39C338.493 182.028 327.352 180.138 317.006 179.74C296.612 178.845 275.82 181.829 257.615 190.982C251.348 194.165 245.379 198.144 241.201 203.815C236.028 211.077 234.436 220.229 233.84 229.083C231.75 259.922 240.007 290.462 243.489 321.202C244.484 330.354 244.882 340.601 239.112 347.763C237.321 349.952 234.834 352.638 236.128 355.224C237.023 357.115 239.51 357.512 241.599 357.711C272.04 360.696 303.476 360.795 332.027 349.952C348.143 343.784 363.662 333.538 371.223 318.118C376.495 307.275 377.589 294.74 376.296 282.802C375.003 270.765 371.422 259.225 367.84 247.686C363.861 235.151 359.981 222.517 356.101 209.982Z" fill="#FF1F3F"/>
<path d="M360.578 293.148C355.206 282.603 345.457 273.849 333.818 271.859C323.074 270.069 311.833 274.446 303.874 281.808C295.816 289.169 290.643 299.217 287.559 309.662C284.475 320.108 283.282 331.051 282.187 341.894C281.69 346.57 281.491 352.041 285.072 355.125C288.256 357.811 293.031 357.313 297.109 356.518C311.037 353.732 324.666 349.256 337.598 343.287C348.74 338.114 360.18 330.653 363.861 319.013C366.547 310.458 364.657 301.107 360.578 293.148Z" fill="#172F35"/>
<path d="M258.312 206.302C257.019 204.113 254.134 203.715 252.244 205.406C246.573 210.48 243.29 218.239 242.395 225.999C241.301 235.648 243.29 245.298 245.379 254.749C252.144 253.654 249.259 254.152 256.024 253.058C255.228 246.492 254.83 239.827 256.123 233.46C257.218 227.988 259.804 222.517 263.883 218.737C265.176 217.543 265.176 215.653 264.082 214.36C261.893 211.773 259.904 209.087 258.312 206.302Z" fill="white"/>
<path d="M342.771 198.94C342.672 200.432 342.373 201.925 341.975 203.317C341.677 204.412 341.975 205.705 342.871 206.501C347.944 211.176 351.824 217.145 353.913 223.711C354.908 224.009 356.002 223.213 356.3 222.219C356.599 221.224 356.4 220.13 356.201 219.135C354.609 212.271 350.431 203.914 345.358 198.144C344.462 197.05 342.871 197.647 342.771 198.94Z" fill="white"/>
<path d="M245.678 310.159C246.573 295.834 243.589 281.608 241.102 267.482C238.615 253.356 236.526 238.832 239.411 224.705C242.196 210.579 250.751 196.95 264.082 191.479C250.055 195.757 241.5 208.092 238.018 222.318C234.536 236.544 236.028 252.461 238.913 266.786C241.798 281.111 244.981 295.536 245.678 310.159Z" fill="#FF8888"/>
<path d="M322.378 185.411C322.278 181.431 322.278 177.452 322.179 173.473C307.654 171.881 292.732 173.174 278.606 177.054C279.402 180.138 280.297 183.321 281.192 186.505C284.873 205.506 303.178 278.226 303.178 278.226L321.482 273.849L297.607 190.086C305.963 189.39 314.32 187.798 322.378 185.411Z" fill="#172F35"/>
<path d="M322.378 184.316C310.44 187.798 298.104 189.39 285.769 188.793C294.025 217.642 304.272 246.989 321.084 272.854C326.058 271.76 330.933 270.168 335.807 268.676C330.038 255.047 326.755 240.423 324.865 225.8C323.074 212.071 322.576 198.244 322.378 184.316Z" fill="#FF8888"/>
<path d="M357.693 160.938C357.693 163.823 356.002 166.211 353.913 166.211C351.824 166.211 350.133 163.823 350.133 160.938C350.133 158.053 351.824 155.666 353.913 155.666C356.002 155.666 357.693 158.053 357.693 160.938Z" fill="#172F35"/>
<path d="M369.233 163.326C368.835 164.221 367.94 164.718 367.044 164.917C366.149 165.116 365.154 165.017 364.259 164.917C359.683 164.42 355.206 163.823 350.63 163.326C350.73 161.635 350.829 160.043 350.929 158.352C355.206 158.551 359.384 158.849 363.662 159.048C365.055 159.148 366.448 159.247 367.641 159.943C368.935 160.54 369.73 162.032 369.233 163.326Z" fill="#172F35"/>
<path d="M352.719 156.163C346.651 156.661 342.075 154.771 337.698 150.592C335.111 148.105 333.121 144.922 330.038 143.032C324.964 139.948 318.597 141.142 312.728 141.739C304.073 142.634 295.02 142.037 287.062 145.618C281.192 148.205 276.517 152.88 271.543 156.959C262.888 163.923 253.039 169.295 242.494 172.677C244.385 174.766 245.877 177.452 246.872 180.238C255.327 178.546 264.181 178.348 272.836 178.646C286.365 179.143 299.895 180.835 313.225 179.342C318.697 178.745 324.268 177.552 329.142 174.866C333.022 172.677 336.404 169.593 340.185 167.206C343.965 164.818 347.447 163.724 351.724 165.017C354.51 162.928 354.709 158.252 352.719 156.163Z" fill="#FF1F3F"/>
<path d="M273.433 162.431C273.93 162.331 274.527 162.132 274.925 161.834C277.114 160.242 276.616 156.76 278.407 154.771C274.826 157.556 271.244 160.242 267.663 163.027C269.354 162.033 271.443 162.729 273.433 162.431Z" fill="#FF8888"/>
<path d="M255.526 187.301C256.621 186.803 257.218 185.61 256.919 184.416C256.621 183.421 256.521 182.327 256.72 181.332C256.919 180.138 257.317 178.944 257.317 177.751C257.317 175.96 256.322 174.368 255.327 172.876C254.532 171.782 253.736 170.787 252.542 170.19C250.751 169.394 248.662 169.892 246.772 170.489C245.578 170.886 244.186 171.384 243.788 172.677C243.589 173.274 243.788 173.871 243.887 174.468C244.584 176.756 245.976 178.745 247.767 180.238C248.961 181.133 250.353 182.028 250.652 183.421C250.851 184.515 250.353 185.61 249.558 186.306C248.762 187.102 247.866 187.599 246.872 188.097C239.212 192.474 232.845 198.741 227.473 205.705C227.373 205.904 227.174 206.103 227.075 206.302C227.075 206.302 227.075 206.302 226.975 206.401C226.677 206.898 226.379 207.396 226.478 207.893C226.577 208.789 227.473 209.485 228.368 209.684C229.065 209.883 229.86 209.783 230.159 209.087C230.358 208.689 230.159 208.192 230.059 207.694C229.96 207.197 229.96 206.799 229.96 206.302C237.023 198.244 245.777 191.678 255.526 187.301Z" fill="white"/>
<path d="M331.828 167.703C334.017 164.221 333.818 159.645 333.121 155.566C332.624 152.582 331.828 149.498 329.54 147.409C327.451 145.519 324.566 145.021 321.781 144.822C313.026 143.927 304.073 144.723 295.617 147.21C290.345 148.702 284.873 151.289 282.486 156.263C279.999 161.436 281.59 169.195 285.868 173.075C290.146 176.955 295.916 176.656 301.686 176.855C308.45 177.054 315.712 175.96 322.079 173.97C328.844 171.782 329.739 170.986 331.828 167.703Z" fill="white"/>
<path d="M324.069 146.414C326.854 149.2 328.446 153.079 329.242 156.959C330.038 160.839 330.137 164.818 330.137 168.797C332.525 163.127 332.525 156.561 330.137 150.99C329.64 149.697 328.943 148.404 327.849 147.508C326.954 146.514 325.461 145.917 324.069 146.414Z" fill="#172F35"/>
<path d="M353.416 168.698C354.112 168.897 354.808 168.698 355.604 168.797C361.274 169.096 365.851 168.598 370.427 170.787C370.128 170.886 369.929 171.881 370.128 172.18C370.626 172.776 371.72 172.379 372.018 171.682C372.217 170.886 371.819 170.09 371.123 169.693C370.427 169.195 369.233 168.598 368.437 168.499C363.861 167.703 359.782 167.206 355.206 166.41C354.012 166.012 353.614 164.52 353.813 163.226C354.012 162.033 354.609 160.839 354.709 159.546C354.709 157.556 352.819 155.765 350.829 155.666C350.332 155.666 349.934 156.163 350.133 156.561C351.127 159.148 350.829 162.132 349.436 164.52C349.138 165.017 349.337 165.514 349.735 165.813C351.227 166.41 352.023 168.2 353.416 168.698Z" fill="white"/>
<path d="M357.575 134.422C363.419 132.021 366.211 125.337 363.81 119.493C361.409 113.648 354.725 110.857 348.88 113.258C343.036 115.659 340.244 122.343 342.645 128.187C345.046 134.032 351.73 136.823 357.575 134.422Z" fill="white"/>
<path d="M352.421 159.148C351.923 159.148 351.525 158.75 351.426 158.252L349.138 144.126C348.839 142.435 349.038 140.644 349.536 139.053L353.913 126.12C354.112 125.623 354.709 125.324 355.206 125.523C355.704 125.722 356.002 126.319 355.803 126.816L351.426 139.749C351.028 141.042 350.829 142.435 351.127 143.828L353.416 157.954C353.515 158.551 353.117 159.048 352.52 159.148C352.52 159.148 352.52 159.148 352.421 159.148Z" fill="white"/>
<path d="M223.693 154.671C231.714 154.671 238.217 148.168 238.217 140.147C238.217 132.125 231.714 125.623 223.693 125.623C215.671 125.623 209.168 132.125 209.168 140.147C209.168 148.168 215.671 154.671 223.693 154.671Z" fill="white"/>
<path d="M249.757 173.97C249.259 173.97 248.861 173.672 248.762 173.175L244.285 154.572C243.788 152.681 242.594 150.99 240.803 149.996L225.284 141.54C224.787 141.241 224.588 140.644 224.886 140.147C225.185 139.65 225.782 139.451 226.279 139.749L241.798 148.205C244.086 149.399 245.678 151.587 246.275 154.074L250.751 172.677C250.851 173.274 250.552 173.771 249.955 173.871C249.955 173.97 249.856 173.97 249.757 173.97Z" fill="white"/>
<path d="M208.87 185.411C209.666 187.301 210.462 189.29 211.257 191.181C222.3 186.505 233.641 182.625 245.28 179.541C244.584 177.353 243.589 175.363 242.196 173.573C231.054 177.552 220.012 181.431 208.87 185.411Z" fill="#172F35"/>
<path d="M238.515 174.169C238.416 172.876 239.41 171.583 240.704 171.085C241.997 170.687 243.39 170.986 244.583 171.682C245.678 172.379 246.573 173.473 247.269 174.567C248.165 175.96 248.762 177.552 248.861 179.243C248.861 180.039 248.662 180.934 248.165 181.829C247.269 183.62 244.882 184.117 243.39 182.725C240.803 180.437 238.615 176.557 238.515 174.169Z" fill="#172F35"/>
<path d="M213.347 187.898C214.739 190.484 214.142 193.469 212.053 194.563C209.964 195.657 207.179 194.463 205.786 191.877C204.393 189.29 204.99 186.306 207.079 185.212C209.168 184.117 211.954 185.311 213.347 187.898Z" fill="#172F35"/>
<path d="M342.572 289.169C340.582 289.468 333.121 290.462 331.132 290.661C316.608 292.551 308.052 318.516 311.932 348.659C315.911 378.801 330.833 401.682 345.358 399.792C347.347 399.493 354.808 398.498 356.798 398.3C371.322 396.409 379.877 370.445 375.998 340.302C372.118 310.16 357.196 287.279 342.572 289.169Z" fill="#172F35"/>
<path d="M335.796 383.23C342.007 382.417 344.865 365.153 342.182 344.67C339.498 324.188 332.289 308.243 326.079 309.057C319.869 309.87 317.01 327.134 319.693 347.617C322.377 368.099 329.586 384.044 335.796 383.23Z" fill="#A6BEBD"/>
<path d="M365.254 291.258C360.877 285.19 355.206 279.917 348.441 276.833C334.415 270.566 321.184 275.839 314.519 289.268C309.843 298.62 305.764 311.154 306.361 321.699C307.057 333.537 307.256 346.868 309.843 358.408C332.226 355.821 364.458 350.449 384.056 343.187C381.37 325.479 375.799 305.782 365.254 291.258Z" fill="#FF1F3F"/>
<path d="M324.168 280.813C320.089 283.001 317.006 286.782 315.513 291.159C317.304 289.07 320.587 288.473 323.173 289.368C325.859 290.263 327.948 292.353 329.341 294.74C330.833 297.128 331.629 299.814 332.525 302.5C336.703 315.532 340.781 328.564 344.96 341.695C345.457 343.386 346.054 345.177 347.347 346.371C349.735 348.659 353.614 348.062 356.798 347.266C355.107 347.664 353.415 346.669 352.321 345.376C351.227 344.083 350.729 342.391 350.232 340.8C344.86 323.291 339.986 305.583 335.708 287.677C335.012 284.792 334.116 281.708 331.53 280.315C329.441 278.923 326.456 279.619 324.168 280.813Z" fill="#FF8888"/>
<path d="M312.032 311.95C310.838 327.27 316.11 342.192 319.791 357.114C320.487 360.099 321.184 363.183 322.875 365.67C324.566 368.256 327.551 370.146 330.535 369.748C333.818 369.251 336.205 366.068 336.802 362.785C337.399 359.502 336.603 356.12 335.807 352.837C331.729 335.925 327.65 319.013 323.571 302.101C321.283 299.813 317.205 300.609 315.016 302.997C312.927 305.384 312.23 308.767 312.032 311.95Z" fill="#172F35"/>
<path d="M327.252 352.339C327.252 359.104 325.362 364.575 323.074 364.575C320.786 364.575 318.896 359.104 318.896 352.339C318.896 345.575 320.786 340.103 323.074 340.103C325.362 340.103 327.252 345.575 327.252 352.339Z" fill="#A6BEBD"/>
<path d="M330.833 365.869C331.43 366.565 332.525 366.764 333.32 366.366C334.216 365.968 334.813 365.272 335.21 364.476C336.504 361.889 336.006 358.806 335.31 355.921C331.629 340.004 326.058 324.684 323.173 308.568C322.974 307.275 322.676 305.882 321.88 304.787C321.084 303.693 319.493 302.997 318.299 303.693C317.503 304.191 317.105 305.086 317.006 306.081C317.006 306.976 317.204 307.971 317.503 308.866C320.189 318.317 322.278 327.867 323.671 337.616C325.76 338.114 327.053 340.103 327.948 341.993C331.032 348.36 331.928 355.821 330.435 362.685C330.435 363.68 330.137 364.973 330.833 365.869Z" fill="#A6BEBD"/>
<path d="M320.786 338.81C319.393 340.501 318.398 342.59 317.801 344.679C317.602 342.391 318.796 340.004 320.786 338.81Z" fill="#A6BEBD"/>
<path d="M240.007 184.316C239.311 182.227 238.117 176.855 236.128 175.86C233.641 174.567 230.756 174.468 228.07 174.269C225.185 174.07 222.3 173.771 219.415 174.368C217.326 174.866 215.535 175.761 214.142 177.452C212.65 179.243 211.755 180.536 211.854 182.924C211.954 185.212 215.734 189.29 218.122 189.39C217.425 189.688 217.226 190.683 217.525 191.379C217.823 192.076 218.321 192.673 218.918 193.17C220.211 194.264 221.405 195.458 222.698 196.552C223.593 197.348 224.588 198.244 225.782 198.443C227.373 198.741 228.866 197.945 230.159 197.05C232.546 195.458 235.133 194.364 236.924 192.076C239.013 189.489 241.102 187.599 240.007 184.316Z" fill="#FEE5CE"/>
</g>
<defs>
<filter id="filter0_d_22_714" x="134.144" y="14.6992" width="260.911" height="403.801" filterUnits="userSpaceOnUse" color-interpolation-filters="sRGB">
<feFlood flood-opacity="0" result="BackgroundImageFix"/>
<feColorMatrix in="SourceAlpha" type="matrix" values="0 0 0 0 0 0 0 0 0 0 0 0 0 0 0 0 0 0 127 0" result="hardAlpha"/>
<feOffset dx="4" dy="6"/>
<feGaussianBlur stdDeviation="3.5"/>
<feColorMatrix type="matrix" values="0 0 0 0 0 0 0 0 0 0 0 0 0 0 0 0 0 0 0.3 0"/>
<feBlend mode="normal" in2="BackgroundImageFix" result="effect1_dropShadow_22_714"/>
<feBlend mode="normal" in="SourceGraphic" in2="effect1_dropShadow_22_714" result="shape"/>
</filter>
<linearGradient id="paint0_linear_22_714" x1="-461.5" y1="192" x2="414" y2="94.5" gradientUnits="userSpaceOnUse">
<stop stop-color="#99BFF8"/>
<stop offset="1" stop-color="#99BFF8" stop-opacity="0"/>
</linearGradient>
<linearGradient id="paint1_linear_22_714" x1="779.5" y1="-389" x2="111.5" y2="197.5" gradientUnits="userSpaceOnUse">
<stop stop-color="#4AADD7"/>
<stop offset="1" stop-color="#4AADD7" stop-opacity="0"/>
</linearGradient>
</defs>
</svg>
