<svg width="27" height="26" viewBox="0 0 27 26" fill="none" xmlns="http://www.w3.org/2000/svg">
<g id="Frame 1">
<g id="Group 63">
<g id="facebook circle">
<path id="Rectangle 3167" d="M24.9233 12.9785C24.9233 6.73558 19.8624 1.67468 13.6195 1.67468C7.37657 1.67468 2.31567 6.73558 2.31567 12.9785C2.31567 19.2214 7.37657 24.2823 13.6195 24.2823C19.8624 24.2823 24.9233 19.2214 24.9233 12.9785Z" fill="#1778F2"/>
<path id="Vector" d="M14.521 19.3589V13.3082H16.552L16.8566 10.95H14.521V9.44448C14.521 8.76179 14.7106 8.29652 15.6896 8.29652H16.9383V6.18804C16.3339 6.12409 15.7265 6.09312 15.1187 6.09526C13.3183 6.09526 12.0858 7.19414 12.0858 9.21231V10.95H10.0496V13.3082H12.0858V19.3589H14.521Z" fill="#FDFDFD"/>
</g>
</g>
</g>
</svg>
