<svg width="27" height="26" viewBox="0 0 27 26" fill="none" xmlns="http://www.w3.org/2000/svg">
<g id="Frame 1">
<g id="Group 63">
<g id="facebook circle">
<path id="Rectangle 3167" d="M24.9235 12.9785C24.9235 6.73558 19.8626 1.67468 13.6196 1.67468C7.37669 1.67468 2.3158 6.73558 2.3158 12.9785C2.3158 19.2214 7.37669 24.2823 13.6196 24.2823C19.8626 24.2823 24.9235 19.2214 24.9235 12.9785Z" fill="white"/>
<path id="Vector" d="M14.521 19.3589V13.3081H16.5521L16.8566 10.95H14.521V9.44441C14.521 8.76173 14.7107 8.29646 15.6897 8.29646H16.9384V6.18798C16.334 6.12403 15.7265 6.09306 15.1188 6.0952C13.3184 6.0952 12.0858 7.19407 12.0858 9.21225V10.95H10.0496V13.3081H12.0858V19.3589H14.521Z" fill="#1F1F1F"/>
</g>
</g>
</g>
</svg>
