<svg width="155" height="48" viewBox="0 0 155 48" fill="none" xmlns="http://www.w3.org/2000/svg">
<g id="Group 43">
<path id="Vector" d="M1.68437 37.3338C1.25865 37.3338 0.925479 37.1302 0.666345 36.723C0.42572 36.3158 0.240625 35.816 0.148077 35.2608C0.0555293 34.7055 0 34.2242 0 33.817C0 33.5579 0.03702 33.3173 0.129568 33.1322C0.203606 32.9286 0.370193 32.6879 0.592308 32.3918L15.1594 15.3444C15.5851 14.8447 16.381 14.9187 16.6957 15.511L16.8807 15.8442C17.2139 16.4735 16.7697 17.2324 16.0478 17.2324H3.84999C2.83197 17.2324 2.40625 16.3995 2.60985 14.7521L2.7024 13.9007C2.79495 13.0493 2.98005 12.4199 3.23918 12.0127C3.49831 11.624 3.90552 11.4204 4.42379 11.4204H21.8598C22.3226 11.4204 22.6743 11.624 22.8964 12.0312C23.1185 12.4384 23.2851 12.9197 23.3961 13.475C23.4887 14.0117 23.5442 14.5115 23.5442 14.9372C23.5442 15.1779 23.5072 15.4 23.4517 15.6036C23.3776 15.8257 23.211 16.0663 22.9519 16.3625L8.40335 33.4468C7.97763 33.9466 7.18172 33.8725 6.86706 33.2987L6.68196 32.9471C6.33028 32.3177 6.79302 31.5403 7.49639 31.5403H20.5086C21.5267 31.5403 21.9524 32.3733 21.7488 34.0206L21.6562 34.8721C21.5637 35.7235 21.3786 36.3528 21.1194 36.76C20.8603 37.1487 20.4531 37.3523 19.9348 37.3523H1.68437V37.3338Z" fill="white"/>
<path id="Vector_2" d="M35.5199 37.741C31.9846 37.741 29.2637 36.7599 27.3757 34.8164C25.4692 32.8729 24.5252 30.1335 24.5252 26.6352C24.5252 25.0249 24.6548 23.4515 24.9139 21.9338C25.173 20.416 25.6173 18.9907 26.2281 17.6766C26.8389 16.3624 27.6533 15.1963 28.6899 14.2153C29.7079 13.2157 30.9851 12.4569 32.4843 11.8831C33.9836 11.3278 35.779 11.0316 37.8521 11.0316C41.3874 11.0316 44.1084 12.0126 45.9963 13.9561C47.9028 15.8996 48.8468 18.639 48.8468 22.1744C48.8468 24.1919 48.6617 26.0244 48.273 27.6717C47.8843 29.3191 47.329 30.7814 46.5701 32.04C45.8112 33.2987 44.8858 34.3352 43.8122 35.1866C42.7386 36.0381 41.517 36.6674 40.1288 37.0931C38.7406 37.5188 37.2043 37.741 35.5199 37.741ZM36.1307 31.9475C36.8156 31.9475 37.4449 31.8179 37.9817 31.5773C38.5185 31.3366 39.0182 30.9664 39.4439 30.4667C39.8697 29.9669 40.2213 29.3376 40.5175 28.5787C40.7951 27.8198 41.0173 26.9314 41.1653 25.9318C41.3134 24.9323 41.3874 23.7847 41.3874 22.5446C41.3874 20.7306 41.0358 19.3239 40.3509 18.3244C39.6661 17.3249 38.6295 16.8436 37.2783 16.8436C36.5935 16.8436 35.9641 16.9732 35.3903 17.2138C34.835 17.4544 34.3353 17.8431 33.9096 18.3614C33.4838 18.8797 33.1322 19.509 32.836 20.2494C32.5584 20.9898 32.3363 21.8782 32.1882 22.8963C32.0401 23.9143 31.9661 25.0619 31.9661 26.3205C31.9661 28.0975 32.3363 29.4857 33.0581 30.4852C33.78 31.4477 34.798 31.9475 36.1307 31.9475Z" fill="white"/>
<path id="Vector_3" d="M86.6064 37.7411C85.9771 37.7411 85.2552 37.6671 84.4223 37.519C83.5894 37.3709 82.812 37.1488 82.0716 36.8527C81.3312 36.5565 80.7019 36.1678 80.2206 35.7051C79.7208 35.2423 79.4802 34.687 79.4802 34.0207C79.4802 33.0952 79.5358 32.3548 79.6283 31.8181C79.7208 31.2813 79.8689 30.8741 80.054 30.6334C80.2391 30.3928 80.4057 30.2632 80.5723 30.2632C80.8314 30.2632 81.2016 30.4113 81.6829 30.689C82.1641 30.9666 82.7564 31.2443 83.4968 31.5404C84.2187 31.8181 85.0701 31.9661 86.0326 31.9661C87.1247 31.9661 87.9391 31.818 88.4944 31.5219C89.0312 31.2257 89.3088 30.7075 89.3088 29.9856C89.3088 29.3933 89.1052 28.9121 88.7165 28.5234C88.3278 28.1532 87.8095 27.8015 87.1802 27.5053C86.5509 27.2092 85.8845 26.8945 85.1997 26.5613C84.3668 26.1726 83.6634 25.7284 83.0711 25.2657C82.4788 24.8029 81.9975 24.3032 81.6088 23.7479C81.2201 23.2111 80.9425 22.6003 80.7574 21.971C80.5723 21.3231 80.4797 20.6012 80.4797 19.8238C80.4797 17.8433 80.9055 16.2145 81.7754 14.9188C82.6269 13.6231 83.8115 12.6606 85.2922 12.0128C86.773 11.365 88.4389 11.0503 90.2898 11.0503C90.9747 11.0503 91.7521 11.1058 92.5665 11.1984C93.3994 11.2909 94.1768 11.4575 94.9357 11.6611C95.6946 11.8832 96.324 12.1794 96.7867 12.5866C97.2679 12.9753 97.5086 13.475 97.5086 14.0674C97.5086 14.3635 97.3605 14.8077 97.0643 15.4C96.7682 15.9924 96.4165 16.5476 95.9908 17.0289C95.5836 17.5286 95.2134 17.7693 94.8802 17.7693C94.547 17.7693 94.1028 17.6027 93.5475 17.2695C92.9922 16.9363 92.0853 16.7698 90.8266 16.7698C89.9381 16.7698 89.2348 16.9178 88.7535 17.214C88.2538 17.5101 88.0131 17.9729 88.0131 18.6022C88.0131 19.2315 88.1982 19.7313 88.5869 20.12C88.9571 20.5087 89.4754 20.8234 90.1047 21.0825C90.7341 21.3416 91.4004 21.6193 92.0853 21.9339C92.6776 22.1746 93.2514 22.4892 93.8252 22.8964C94.3804 23.3036 94.8987 23.7849 95.3429 24.3402C95.7872 24.877 96.1574 25.5063 96.435 26.1911C96.7127 26.876 96.8607 27.6534 96.8607 28.5234C96.8607 30.5409 96.4165 32.2253 95.5465 33.595C94.6766 34.9647 93.4735 36.0012 91.9372 36.6861C90.3639 37.3894 88.5869 37.7411 86.6064 37.7411Z" fill="white"/>
<path id="Vector_4" d="M121.145 37.7411C119.85 37.7411 118.739 37.5004 117.776 37.0562C116.814 36.5935 116.111 35.8346 115.666 34.7795C115.222 33.7245 115.074 32.2807 115.241 30.4668L116.24 20.2125C116.277 19.9533 116.296 19.7497 116.296 19.6387C116.296 19.5276 116.296 19.3981 116.296 19.2685C116.296 18.5096 116.111 17.9543 115.759 17.6026C115.389 17.2509 114.815 17.0844 114.019 17.0844C113.482 17.0844 112.927 17.2139 112.316 17.4731C111.705 17.7322 111.113 18.0839 110.558 18.5466C110.002 18.9908 109.521 19.5091 109.114 20.1014L107.485 35.8531C107.393 36.9081 106.338 37.4449 104.357 37.4449H102.969C101.969 37.4449 101.247 37.2968 100.785 36.9822C100.322 36.6675 100.1 36.3158 100.137 35.9086L103.746 1.57332C103.82 1.03654 104.116 0.647837 104.635 0.388703C105.171 0.129568 105.912 0 106.856 0H108.244C109.244 0 109.965 0.148077 110.447 0.46274C110.928 0.777403 111.132 1.12909 111.058 1.5363L109.725 14.5115C110.354 13.8267 111.113 13.2159 111.983 12.6976C112.853 12.1793 113.797 11.7721 114.778 11.4759C115.777 11.1798 116.703 11.0317 117.61 11.0317C118.832 11.0317 119.905 11.2353 120.831 11.6425C121.756 12.0497 122.478 12.7346 123.015 13.6971C123.551 14.6596 123.811 15.9553 123.811 17.6026C123.811 17.8618 123.811 18.1394 123.792 18.417C123.774 18.6947 123.755 18.9908 123.718 19.287L122.57 30.0411C122.496 30.7259 122.589 31.2257 122.848 31.5033C123.089 31.781 123.477 31.929 124.014 31.929C124.384 31.929 124.681 31.8735 124.94 31.781C125.18 31.6884 125.365 31.6329 125.458 31.6329C125.625 31.6329 125.736 31.6699 125.773 31.7625C125.828 31.8365 125.847 32.0031 125.847 32.2252C125.847 32.3178 125.847 32.4843 125.828 32.725C125.81 32.9471 125.791 33.2617 125.754 33.669C125.717 34.0577 125.643 34.5574 125.514 35.1497C125.421 35.742 125.125 36.2233 124.644 36.612C124.162 37.0007 123.607 37.2783 122.978 37.4634C122.348 37.6485 121.738 37.7411 121.145 37.7411Z" fill="white"/>
<path id="Vector_5" d="M76.0929 17.1398C75.6857 15.8071 75.0934 14.678 74.3345 13.771C73.5756 12.8641 72.6687 12.1792 71.6321 11.7165C70.5956 11.2537 69.4295 11.0316 68.1338 11.0316C66.7826 11.0316 65.561 11.2907 64.4689 11.809C63.3768 12.3273 62.4699 12.9751 61.711 13.7895C61.4889 14.0302 61.2853 14.2708 61.1002 14.5299C61.1557 14.0302 61.1742 13.5304 61.1742 13.0862C61.1742 12.4569 61.0261 12.0311 60.7485 11.8275C60.4708 11.6054 59.897 11.5129 59.0456 11.5129C58.7865 11.5129 58.3793 11.5314 57.824 11.5684C57.2872 11.6054 56.7134 11.6794 56.1396 11.7905C55.5658 11.9016 55.066 12.0681 54.6588 12.2532C54.2516 12.4569 54.048 12.716 54.048 13.0492C54.048 13.5304 54.0665 13.9561 54.085 14.3263C54.1035 15.2333 54.085 16.0477 54.048 16.7696C54.011 17.3249 53.974 17.8802 53.9184 18.3984C53.8629 18.9352 53.8074 19.4905 53.7519 20.0828L51.0309 45.9407C50.9939 46.3664 51.179 46.7551 51.5677 47.0883C51.9564 47.4215 52.7153 47.5881 53.8444 47.5881H55.2326C57.2131 47.5881 58.2497 47.0513 58.3607 45.9962L59.3788 35.964L61.1187 36.8155C61.7665 37.1301 62.4699 37.3708 63.2473 37.5373C64.0247 37.7039 64.8021 37.778 65.598 37.778C67.2453 37.778 68.7446 37.4078 70.1143 36.6859C71.4655 35.964 72.6502 34.909 73.6312 33.5208C74.6307 32.1325 75.3896 30.4482 75.9078 28.4862C76.4446 26.5241 76.7037 24.303 76.7037 21.8227C76.7037 20.0273 76.5001 18.491 76.0929 17.1398ZM70.429 25.0989C69.7997 29.0785 67.1713 32.0585 64.58 31.7624C61.9701 31.4477 60.3783 27.9679 61.0076 23.9883C61.6369 20.0088 64.2653 17.0287 66.8566 17.3249C69.4665 17.621 71.0583 21.1008 70.429 25.0989Z" fill="white"/>
<path id="Vector_6" d="M144.819 23.0259C144.801 24.0809 144.726 25.0434 144.597 25.9134C144.449 26.9129 144.227 27.8013 143.949 28.5602C143.671 29.3191 143.32 29.9484 142.876 30.4482C142.45 30.948 141.95 31.3182 141.413 31.5588C140.876 31.7994 140.247 31.929 139.562 31.929C138.248 31.929 137.212 31.4292 136.49 30.4482C135.768 29.4487 135.398 28.079 135.398 26.2835C135.398 25.0249 135.472 23.8958 135.62 22.8593C135.768 21.8412 135.99 20.9528 136.268 20.2124C136.545 19.472 136.897 18.8427 137.341 18.3244C137.767 17.8062 138.267 17.436 138.822 17.1768C139.377 16.9362 140.007 16.8066 140.71 16.8066C142.061 16.8066 143.079 17.3064 143.782 18.2874C143.801 18.3059 143.801 18.3244 143.801 18.3244C145.448 16.7696 147.244 15.0852 148.965 13.4749C147.096 11.8276 144.541 10.9946 141.284 10.9946C139.211 10.9946 137.415 11.2723 135.916 11.8461C134.417 12.4014 133.158 13.1788 132.121 14.1783C131.103 15.1778 130.27 16.3254 129.66 17.6396C129.049 18.9537 128.605 20.379 128.345 21.8968C128.086 23.4146 127.957 24.9879 127.957 26.5982C127.957 30.0965 128.901 32.8174 130.807 34.7795C132.714 36.723 135.416 37.704 138.951 37.704C140.636 37.704 142.172 37.4819 143.56 37.0561C144.949 36.6304 146.17 35.9826 147.244 35.1496C148.317 34.2982 149.224 33.2617 150.002 32.003C150.761 30.7444 151.334 29.3006 151.705 27.6347C152.075 25.9874 152.278 24.155 152.278 22.1374C152.278 19.509 151.742 17.3064 150.705 15.5665C148.78 18.1208 146.688 20.7492 144.819 23.0259Z" fill="white"/>
<path id="Vector_7" d="M138.84 22.4336C138.803 22.6187 154.981 7.25577 154.999 7.44087C155.11 9.06971 141.432 25.5803 140.784 26.2281" fill="#FF1F3F"/>
</g>
</svg>
