<svg width="23" height="24" viewBox="0 0 23 24" fill="none" xmlns="http://www.w3.org/2000/svg">
<g id="Group 62">
<path id="Vector" d="M15.6932 0.674805H7.175C5.29237 0.674805 3.48685 1.42268 2.15563 2.7539C0.82441 4.08512 0.0765381 5.89064 0.0765381 7.77327L0.0765381 16.2914C0.0765381 18.1741 0.82441 19.9796 2.15563 21.3108C3.48685 22.642 5.29237 23.3899 7.175 23.3899H15.6932C17.5758 23.3899 19.3813 22.642 20.7125 21.3108C22.0437 19.9796 22.7916 18.1741 22.7916 16.2914V7.77327C22.7916 5.89064 22.0437 4.08512 20.7125 2.7539C19.3813 1.42268 17.5758 0.674805 15.6932 0.674805ZM20.6621 16.2914C20.6621 19.0314 18.4332 21.2603 15.6932 21.2603H7.175C4.43499 21.2603 2.20608 19.0314 2.20608 16.2914V7.77327C2.20608 5.03326 4.43499 2.80434 7.175 2.80434H15.6932C18.4332 2.80434 20.6621 5.03326 20.6621 7.77327V16.2914Z" fill="white"/>
<path id="Vector_2" d="M11.4341 6.35339C9.92798 6.35339 8.48356 6.95169 7.41858 8.01667C6.35361 9.08164 5.75531 10.5261 5.75531 12.0322C5.75531 13.5383 6.35361 14.9827 7.41858 16.0477C8.48356 17.1126 9.92798 17.7109 11.4341 17.7109C12.9402 17.7109 14.3846 17.1126 15.4496 16.0477C16.5146 14.9827 17.1129 13.5383 17.1129 12.0322C17.1129 10.5261 16.5146 9.08164 15.4496 8.01667C14.3846 6.95169 12.9402 6.35339 11.4341 6.35339ZM11.4341 15.5814C10.4931 15.5803 9.59101 15.206 8.92564 14.5406C8.26027 13.8752 7.88598 12.9731 7.88485 12.0322C7.88485 10.0744 9.47774 8.48293 11.4341 8.48293C13.3904 8.48293 14.9833 10.0744 14.9833 12.0322C14.9833 13.9885 13.3904 15.5814 11.4341 15.5814Z" fill="white"/>
<path id="Vector_3" d="M17.5387 6.68429C17.9567 6.68429 18.2954 6.34551 18.2954 5.92759C18.2954 5.50968 17.9567 5.1709 17.5387 5.1709C17.1208 5.1709 16.782 5.50968 16.782 5.92759C16.782 6.34551 17.1208 6.68429 17.5387 6.68429Z" fill="white"/>
</g>
</svg>
