<svg width="23" height="24" viewBox="0 0 23 24" fill="none" xmlns="http://www.w3.org/2000/svg">
<g id="Group 62">
<path id="Vector" d="M15.6933 0.674805H7.17512C5.29249 0.674805 3.48697 1.42268 2.15575 2.7539C0.824532 4.08512 0.0766602 5.89064 0.0766602 7.77327L0.0766602 16.2914C0.0766602 18.1741 0.824532 19.9796 2.15575 21.3108C3.48697 22.642 5.29249 23.3899 7.17512 23.3899H15.6933C17.5759 23.3899 19.3814 22.642 20.7126 21.3108C22.0439 19.9796 22.7917 18.1741 22.7917 16.2914V7.77327C22.7917 5.89064 22.0439 4.08512 20.7126 2.7539C19.3814 1.42268 17.5759 0.674805 15.6933 0.674805ZM20.6622 16.2914C20.6622 19.0314 18.4333 21.2603 15.6933 21.2603H7.17512C4.43512 21.2603 2.2062 19.0314 2.2062 16.2914V7.77327C2.2062 5.03326 4.43512 2.80434 7.17512 2.80434H15.6933C18.4333 2.80434 20.6622 5.03326 20.6622 7.77327V16.2914Z" fill="url(#paint0_linear_43_505)"/>
<path id="Vector_2" d="M11.4341 6.35339C9.92804 6.35339 8.48362 6.95169 7.41864 8.01667C6.35367 9.08164 5.75537 10.5261 5.75537 12.0322C5.75537 13.5383 6.35367 14.9827 7.41864 16.0477C8.48362 17.1126 9.92804 17.7109 11.4341 17.7109C12.9402 17.7109 14.3847 17.1126 15.4496 16.0477C16.5146 14.9827 17.1129 13.5383 17.1129 12.0322C17.1129 10.5261 16.5146 9.08164 15.4496 8.01667C14.3847 6.95169 12.9402 6.35339 11.4341 6.35339ZM11.4341 15.5814C10.4932 15.5803 9.59107 15.206 8.9257 14.5406C8.26033 13.8752 7.88604 12.9731 7.88491 12.0322C7.88491 10.0744 9.4778 8.48293 11.4341 8.48293C13.3905 8.48293 14.9834 10.0744 14.9834 12.0322C14.9834 13.9885 13.3905 15.5814 11.4341 15.5814Z" fill="url(#paint1_linear_43_505)"/>
<path id="Vector_3" d="M17.5389 6.68423C17.9568 6.68423 18.2956 6.34545 18.2956 5.92753C18.2956 5.50962 17.9568 5.17084 17.5389 5.17084C17.121 5.17084 16.7822 5.50962 16.7822 5.92753C16.7822 6.34545 17.121 6.68423 17.5389 6.68423Z" fill="url(#paint2_linear_43_505)"/>
</g>
<defs>
<linearGradient id="paint0_linear_43_505" x1="2.15509" y1="21.3115" x2="20.7133" y2="2.75323" gradientUnits="userSpaceOnUse">
<stop stop-color="#FFC107"/>
<stop offset="0.507" stop-color="#F44336"/>
<stop offset="0.99" stop-color="#9C27B0"/>
</linearGradient>
<linearGradient id="paint1_linear_43_505" x1="7.41925" y1="16.0471" x2="15.449" y2="8.01727" gradientUnits="userSpaceOnUse">
<stop stop-color="#FFC107"/>
<stop offset="0.507" stop-color="#F44336"/>
<stop offset="0.99" stop-color="#9C27B0"/>
</linearGradient>
<linearGradient id="paint2_linear_43_505" x1="17.0037" y1="6.46276" x2="18.0741" y2="5.39231" gradientUnits="userSpaceOnUse">
<stop stop-color="#FFC107"/>
<stop offset="0.507" stop-color="#F44336"/>
<stop offset="0.99" stop-color="#9C27B0"/>
</linearGradient>
</defs>
</svg>
