<svg width="24" height="25" viewBox="0 0 24 25" fill="none" xmlns="http://www.w3.org/2000/svg">
<g id="Group 64">
<path id="Vector" d="M12.2776 0.674805C5.80346 0.674805 0.555176 5.92309 0.555176 12.3973C0.555176 18.8715 5.80346 24.1197 12.2776 24.1197C18.7518 24.1197 24.0002 18.8715 24.0002 12.3973C24.0001 5.92309 18.7517 0.674805 12.2776 0.674805ZM9.15006 18.0645H6.57628V9.74937H9.15006V18.0645ZM7.85091 8.66044C7.01034 8.66044 6.3289 7.97345 6.3289 7.12615C6.3289 6.27875 7.01043 5.59181 7.85091 5.59181C8.69138 5.59181 9.37281 6.27875 9.37281 7.12615C9.37286 7.9735 8.69143 8.66044 7.85091 8.66044ZM18.7953 18.0645H16.234V13.6998C16.234 12.5026 15.7793 11.8344 14.8327 11.8344C13.8025 11.8344 13.2643 12.5304 13.2643 13.6998V18.0645H10.7957V9.74937H13.2643V10.8693C13.2643 10.8693 14.0068 9.49574 15.77 9.49574C17.5332 9.49574 18.7954 10.5723 18.7954 12.7995L18.7953 18.0645Z" fill="url(#paint0_linear_43_519)"/>
</g>
<defs>
<linearGradient id="paint0_linear_43_519" x1="3.9886" y1="4.10823" x2="20.5667" y2="20.6863" gradientUnits="userSpaceOnUse">
<stop stop-color="#2489BE"/>
<stop offset="1" stop-color="#0575B3"/>
</linearGradient>
</defs>
</svg>
