<svg width="24" height="25" viewBox="0 0 24 25" fill="none" xmlns="http://www.w3.org/2000/svg">
<g id="Group 64">
<path id="Vector" d="M12.2775 0.674805C5.80334 0.674805 0.555054 5.92309 0.555054 12.3973C0.555054 18.8715 5.80334 24.1197 12.2775 24.1197C18.7517 24.1197 24 18.8715 24 12.3973C24 5.92309 18.7516 0.674805 12.2775 0.674805ZM9.14994 18.0645H6.57616V9.74937H9.14994V18.0645ZM7.85078 8.66044C7.01021 8.66044 6.32878 7.97345 6.32878 7.12615C6.32878 6.27875 7.01031 5.59181 7.85078 5.59181C8.69126 5.59181 9.37269 6.27875 9.37269 7.12615C9.37274 7.9735 8.69131 8.66044 7.85078 8.66044ZM18.7952 18.0645H16.2339V13.6998C16.2339 12.5026 15.7792 11.8344 14.8326 11.8344C13.8023 11.8344 13.2641 12.5304 13.2641 13.6998V18.0645H10.7956V9.74937H13.2641V10.8693C13.2641 10.8693 14.0067 9.49574 15.7698 9.49574C17.5331 9.49574 18.7952 10.5723 18.7952 12.7995L18.7952 18.0645Z" fill="url(#paint0_linear_33_30)"/>
</g>
<defs>
<linearGradient id="paint0_linear_33_30" x1="3.98848" y1="4.10823" x2="20.5666" y2="20.6863" gradientUnits="userSpaceOnUse">
<stop stop-color="white"/>
<stop offset="1" stop-color="white"/>
</linearGradient>
</defs>
</svg>
