<svg width="115" height="36" viewBox="0 0 115 36" fill="none" xmlns="http://www.w3.org/2000/svg">
<path d="M1.2497 27.6994C0.933839 27.6994 0.686646 27.5483 0.494385 27.2462C0.315857 26.944 0.178528 26.5733 0.109864 26.1613C0.0411992 25.7493 0 25.3922 0 25.0901C0 24.8978 0.0274665 24.7193 0.0961311 24.582C0.151063 24.4309 0.274659 24.2524 0.439454 24.0327L11.2473 11.3846C11.5631 11.0139 12.1536 11.0688 12.3871 11.5082L12.5244 11.7554C12.7716 12.2224 12.442 12.7854 11.9064 12.7854H2.85645C2.10114 12.7854 1.78528 12.1674 1.93634 10.9452L2.00501 10.3135C2.07367 9.68177 2.211 9.21485 2.40326 8.91272C2.59552 8.62433 2.89765 8.47327 3.28217 8.47327H16.2186C16.5619 8.47327 16.8228 8.62433 16.9876 8.92645C17.1524 9.22858 17.276 9.58563 17.3584 9.99762C17.4271 10.3959 17.4683 10.7667 17.4683 11.0825C17.4683 11.261 17.4408 11.4258 17.3996 11.5769C17.3447 11.7417 17.2211 11.9202 17.0288 12.14L6.23475 24.8154C5.91889 25.1862 5.32837 25.1313 5.09491 24.7056L4.95759 24.4447C4.69666 23.9777 5.03998 23.401 5.56184 23.401H15.2161C15.9714 23.401 16.2872 24.0189 16.1362 25.2412L16.0675 25.8729C15.9989 26.5046 15.8615 26.9715 15.6693 27.2736C15.477 27.562 15.1749 27.7131 14.7904 27.7131H1.2497V27.6994Z" fill="white"/>
<path d="M26.3535 28.0014C23.7305 28.0014 21.7117 27.2736 20.311 25.8316C18.8965 24.3897 18.1961 22.3572 18.1961 19.7617C18.1961 18.5669 18.2922 17.3996 18.4845 16.2735C18.6768 15.1474 19.0063 14.09 19.4595 13.1149C19.9127 12.1399 20.517 11.2747 21.286 10.5469C22.0413 9.80529 22.9889 9.24225 24.1013 8.81653C25.2136 8.40454 26.5457 8.18481 28.0838 8.18481C30.7068 8.18481 32.7255 8.91266 34.1263 10.3546C35.5408 11.7966 36.2412 13.829 36.2412 16.452C36.2412 17.9489 36.1038 19.3085 35.8154 20.5307C35.5271 21.7529 35.1151 22.8378 34.552 23.7717C33.989 24.7055 33.3023 25.4746 32.5058 26.1063C31.7093 26.738 30.8029 27.2049 29.773 27.5208C28.743 27.8366 27.6032 28.0014 26.3535 28.0014ZM26.8066 23.703C27.3148 23.703 27.7817 23.6069 28.1799 23.4284C28.5782 23.2498 28.949 22.9752 29.2648 22.6044C29.5807 22.2336 29.8416 21.7667 30.0614 21.2036C30.2673 20.6406 30.4321 19.9814 30.542 19.2398C30.6519 18.4982 30.7068 17.6468 30.7068 16.7267C30.7068 15.3809 30.4459 14.3372 29.9378 13.5956C29.4296 12.854 28.6606 12.4969 27.6581 12.4969C27.15 12.4969 26.6831 12.5931 26.2573 12.7716C25.8453 12.9501 25.4746 13.2385 25.1587 13.623C24.8428 14.0076 24.5819 14.4745 24.3622 15.0238C24.1562 15.5731 23.9914 16.2323 23.8815 16.9876C23.7717 17.7429 23.7167 18.5944 23.7167 19.5282C23.7167 20.8466 23.9914 21.8765 24.527 22.6181C25.0626 23.3322 25.8179 23.703 26.8066 23.703Z" fill="white"/>
<path d="M64.2564 28.0015C63.7894 28.0015 63.2539 27.9466 62.6359 27.8367C62.0179 27.7268 61.4411 27.562 60.8918 27.3423C60.3425 27.1226 59.8756 26.8342 59.5185 26.4909C59.1477 26.1475 58.9692 25.7355 58.9692 25.2412C58.9692 24.5545 59.0104 24.0052 59.079 23.6069C59.1477 23.2087 59.2576 22.9066 59.3949 22.728C59.5322 22.5495 59.6558 22.4534 59.7794 22.4534C59.9717 22.4534 60.2463 22.5632 60.6034 22.7692C60.9605 22.9752 61.3999 23.1812 61.9492 23.401C62.4848 23.6069 63.1165 23.7168 63.8306 23.7168C64.6409 23.7168 65.2451 23.6069 65.6571 23.3872C66.0554 23.1675 66.2614 22.783 66.2614 22.2474C66.2614 21.8079 66.1103 21.4509 65.8219 21.1625C65.5335 20.8878 65.149 20.6269 64.6821 20.4072C64.2152 20.1875 63.7208 19.954 63.2127 19.7068C62.5947 19.4184 62.0728 19.0888 61.6334 18.7455C61.1939 18.4022 60.8369 18.0314 60.5485 17.6194C60.2601 17.2211 60.0541 16.768 59.9168 16.301C59.7794 15.8204 59.7108 15.2848 59.7108 14.708C59.7108 13.2386 60.0266 12.0301 60.6721 11.0688C61.3038 10.1075 62.1827 9.39337 63.2813 8.91272C64.38 8.43207 65.6159 8.19861 66.9892 8.19861C67.4973 8.19861 68.0741 8.23981 68.6784 8.30847C69.2963 8.37713 69.8731 8.50073 70.4362 8.65179C70.9992 8.81659 71.4661 9.03631 71.8095 9.33844C72.1665 9.62683 72.345 9.99762 72.345 10.4371C72.345 10.6568 72.2352 10.9864 72.0155 11.4258C71.7957 11.8653 71.5348 12.2773 71.2189 12.6343C70.9168 13.0051 70.6422 13.1837 70.395 13.1837C70.1478 13.1837 69.8182 13.0601 69.4062 12.8129C68.9942 12.5657 68.3213 12.4421 67.3875 12.4421C66.7283 12.4421 66.2064 12.5519 65.8494 12.7717C65.4786 12.9914 65.3001 13.3347 65.3001 13.8016C65.3001 14.2686 65.4374 14.6393 65.7258 14.9277C66.0004 15.2161 66.385 15.4496 66.8519 15.6419C67.3188 15.8341 67.8132 16.0401 68.3213 16.2736C68.7607 16.4521 69.1865 16.6856 69.6122 16.9877C70.0242 17.2898 70.4087 17.6469 70.7383 18.0588C71.0679 18.4571 71.3425 18.924 71.5485 19.4321C71.7545 19.9403 71.8644 20.517 71.8644 21.1625C71.8644 22.6594 71.5348 23.9091 70.8894 24.9253C70.2439 25.9415 69.3513 26.7106 68.2114 27.2187C67.0441 27.7406 65.7258 28.0015 64.2564 28.0015Z" fill="white"/>
<path d="M89.8819 28.0014C88.9206 28.0014 88.0967 27.8229 87.3825 27.4933C86.6684 27.15 86.1466 26.5869 85.817 25.8042C85.4874 25.0214 85.3775 23.9502 85.5011 22.6044L86.2427 14.9964C86.2702 14.8041 86.2839 14.653 86.2839 14.5706C86.2839 14.4882 86.2839 14.3921 86.2839 14.296C86.2839 13.7329 86.1466 13.3209 85.8857 13.06C85.611 12.7991 85.1853 12.6755 84.5948 12.6755C84.1965 12.6755 83.7845 12.7716 83.3313 12.9639C82.8781 13.1561 82.4387 13.4171 82.0267 13.7604C81.6147 14.09 81.2577 14.4745 80.9555 14.914L79.747 26.6007C79.6784 27.3835 78.8956 27.7817 77.4262 27.7817H76.3962C75.6546 27.7817 75.119 27.6718 74.7757 27.4384C74.4324 27.2049 74.2676 26.944 74.2951 26.6419L76.973 1.1673C77.0279 0.769044 77.2476 0.480653 77.6322 0.288392C78.0304 0.0961313 78.5797 0 79.2801 0H80.3101C81.0517 0 81.5872 0.109863 81.9443 0.343323C82.3014 0.576783 82.4524 0.837711 82.3975 1.13984L81.4087 10.7666C81.8756 10.2585 82.4387 9.80531 83.0841 9.42079C83.7296 9.03627 84.43 8.73414 85.1578 8.51441C85.8994 8.29469 86.586 8.18483 87.2589 8.18483C88.1653 8.18483 88.9618 8.33589 89.6485 8.63801C90.3351 8.94014 90.8707 9.44825 91.269 10.1624C91.6672 10.8765 91.8595 11.8378 91.8595 13.06C91.8595 13.2523 91.8595 13.4583 91.8457 13.6643C91.832 13.8703 91.8183 14.09 91.7908 14.3097L90.9394 22.2885C90.8844 22.7967 90.9531 23.1674 91.1454 23.3734C91.3239 23.5794 91.6123 23.6893 92.0105 23.6893C92.2852 23.6893 92.5049 23.6481 92.6972 23.5794C92.8757 23.5108 93.013 23.4696 93.0817 23.4696C93.2053 23.4696 93.2877 23.497 93.3152 23.5657C93.3564 23.6206 93.3701 23.7442 93.3701 23.909C93.3701 23.9777 93.3701 24.1013 93.3564 24.2798C93.3426 24.4446 93.3289 24.6781 93.3014 24.9802C93.274 25.2686 93.219 25.6394 93.1229 26.0788C93.0542 26.5183 92.8345 26.8753 92.4775 27.1637C92.1204 27.4521 91.7084 27.6581 91.2415 27.7954C90.7746 27.9328 90.3214 28.0014 89.8819 28.0014Z" fill="white"/>
<path d="M56.456 12.7167C56.1539 11.7279 55.7145 10.8902 55.1514 10.2173C54.5884 9.54437 53.9154 9.03625 53.1464 8.69293C52.3774 8.3496 51.5122 8.18481 50.5509 8.18481C49.5484 8.18481 48.642 8.37707 47.8318 8.76159C47.0215 9.14611 46.3486 9.62677 45.7856 10.231C45.6208 10.4095 45.4697 10.5881 45.3324 10.7803C45.3736 10.4095 45.3873 10.0388 45.3873 9.70917C45.3873 9.24225 45.2774 8.92639 45.0714 8.77533C44.8654 8.61053 44.4397 8.54187 43.808 8.54187C43.6158 8.54187 43.3136 8.5556 42.9016 8.58306C42.5034 8.61053 42.0777 8.66546 41.6519 8.74786C41.2262 8.83026 40.8554 8.95385 40.5533 9.09118C40.2512 9.24225 40.1001 9.43451 40.1001 9.6817C40.1001 10.0388 40.1139 10.3546 40.1276 10.6293C40.1413 11.3022 40.1276 11.9064 40.1001 12.442C40.0727 12.854 40.0452 13.266 40.004 13.6505C39.9628 14.0488 39.9216 14.4608 39.8804 14.9002L37.8617 34.0851C37.8342 34.401 37.9715 34.6894 38.2599 34.9365C38.5483 35.1837 39.1114 35.3073 39.9491 35.3073H40.979C42.4485 35.3073 43.2175 34.9091 43.2999 34.1263L44.0552 26.6831L45.3461 27.3148C45.8268 27.5482 46.3486 27.7268 46.9254 27.8504C47.5022 27.9739 48.079 28.0289 48.6695 28.0289C49.8917 28.0289 51.0041 27.7542 52.0203 27.2186C53.0228 26.6831 53.9017 25.9003 54.6296 24.8703C55.3711 23.8403 55.9342 22.5906 56.3187 21.135C56.717 19.6793 56.9092 18.0313 56.9092 16.1911C56.9092 14.859 56.7582 13.7192 56.456 12.7167ZM52.2538 18.6218C51.7868 21.5744 49.8368 23.7854 47.9142 23.5657C45.9778 23.3322 44.7968 20.7504 45.2637 17.7979C45.7306 14.8453 47.6807 12.6343 49.6033 12.854C51.5396 13.0737 52.7207 15.6555 52.2538 18.6218Z" fill="white"/>
<path d="M107.446 17.0837C107.433 17.8665 107.378 18.5806 107.282 19.2261C107.172 19.9677 107.007 20.6268 106.801 21.1899C106.595 21.7529 106.334 22.2199 106.004 22.5906C105.689 22.9614 105.318 23.2361 104.919 23.4146C104.521 23.5932 104.054 23.6893 103.546 23.6893C102.571 23.6893 101.802 23.3185 101.267 22.5906C100.731 21.8491 100.456 20.8328 100.456 19.5007C100.456 18.5669 100.511 17.7292 100.621 16.9601C100.731 16.2048 100.896 15.5457 101.102 14.9963C101.308 14.447 101.569 13.9801 101.898 13.5956C102.214 13.2111 102.585 12.9364 102.997 12.7441C103.409 12.5656 103.876 12.4695 104.398 12.4695C105.4 12.4695 106.155 12.8403 106.677 13.5681C106.691 13.5818 106.691 13.5956 106.691 13.5956C107.913 12.442 109.245 11.1923 110.523 9.99756C109.136 8.77533 107.24 8.15735 104.823 8.15735C103.285 8.15735 101.953 8.36334 100.841 8.78906C99.7285 9.20105 98.7946 9.77784 98.0256 10.5194C97.2703 11.261 96.6523 12.1124 96.1991 13.0875C95.7459 14.0625 95.4163 15.1199 95.2241 16.246C95.0318 17.3721 94.9357 18.5394 94.9357 19.7342C94.9357 22.3297 95.636 24.3485 97.0505 25.8042C98.465 27.2461 100.47 27.974 103.093 27.974C104.343 27.974 105.483 27.8092 106.513 27.4933C107.542 27.1774 108.449 26.6968 109.245 26.0788C110.042 25.4471 110.715 24.6781 111.292 23.7442C111.855 22.8104 112.28 21.7392 112.555 20.5032C112.83 19.281 112.981 17.9215 112.981 16.4246C112.981 14.4745 112.582 12.8403 111.813 11.5494C110.385 13.4445 108.833 15.3946 107.446 17.0837Z" fill="white"/>
<path d="M103.011 16.6443C102.983 16.7816 114.986 5.38331 115 5.52064C115.082 6.72914 104.933 18.9789 104.453 19.4596" fill="#FF1F3F"/>
</svg>
