<svg width="51" height="62" viewBox="0 0 51 62" fill="none" xmlns="http://www.w3.org/2000/svg">
<g id="Group 50">
<path id="Vector" d="M44.8421 1H6.15789C4.78994 1 3.478 1.54342 2.51071 2.51071C1.54342 3.47801 1 4.78994 1 6.15789V55.1579C1 56.5259 1.54342 57.8378 2.51071 58.8051C3.478 59.7724 4.78994 60.3158 6.15789 60.3158H44.8421C46.2101 60.3158 47.522 59.7724 48.4893 58.8051C49.4566 57.8378 50 56.5259 50 55.1579V6.15789C50 4.78994 49.4566 3.47801 48.4893 2.51071C47.522 1.54342 46.2101 1 44.8421 1Z" fill="#66E1FF"/>
<path id="Vector_2" d="M49.1876 3.401C48.7238 2.66753 48.0824 2.06296 47.3228 1.64326C46.5632 1.22357 45.7099 1.00232 44.8421 1H6.15789C4.78994 1 3.478 1.54342 2.51071 2.51071C1.54342 3.47801 1 4.78994 1 6.15789V51.5861L49.1876 3.401Z" fill="#C2F3FF"/>
<path id="Vector_3" d="M44.8421 1H6.15789C4.78994 1 3.478 1.54342 2.51071 2.51071C1.54342 3.47801 1 4.78994 1 6.15789V55.1579C1 56.5259 1.54342 57.8378 2.51071 58.8051C3.478 59.7724 4.78994 60.3158 6.15789 60.3158H44.8421C46.2101 60.3158 47.522 59.7724 48.4893 58.8051C49.4566 57.8378 50 56.5259 50 55.1579V6.15789C50 4.78994 49.4566 3.47801 48.4893 2.51071C47.522 1.54342 46.2101 1 44.8421 1Z" stroke="#191919" stroke-width="2" stroke-linecap="round" stroke-linejoin="round"/>
<path id="Vector_4" d="M13.8947 8.73682V16.4737H10.0263C9.00035 16.4737 8.0164 16.0661 7.29093 15.3406C6.56546 14.6152 6.1579 13.6312 6.1579 12.6052C6.1579 11.5793 6.56546 10.5953 7.29093 9.86985C8.0164 9.14438 9.00035 8.73682 10.0263 8.73682H13.8947Z" fill="#FF808C" stroke="#191919" stroke-width="2" stroke-linecap="round" stroke-linejoin="round"/>
<path id="Vector_5" d="M21.6316 12.6052C21.6316 13.6312 21.224 14.6152 20.4985 15.3406C19.7731 16.0661 18.7891 16.4737 17.7631 16.4737H13.8947V8.73682H17.7631C18.7891 8.73682 19.7731 9.14438 20.4985 9.86985C21.224 10.5953 21.6316 11.5793 21.6316 12.6052Z" fill="white" stroke="#191919" stroke-width="2" stroke-linecap="round" stroke-linejoin="round"/>
<path id="Vector_6" d="M37.1053 8.73682V16.4737H33.2368C32.2109 16.4737 31.2269 16.0661 30.5014 15.3406C29.776 14.6152 29.3684 13.6312 29.3684 12.6052C29.3684 11.5793 29.776 10.5953 30.5014 9.86985C31.2269 9.14438 32.2109 8.73682 33.2368 8.73682H37.1053Z" fill="#FF808C" stroke="#191919" stroke-width="2" stroke-linecap="round" stroke-linejoin="round"/>
<path id="Vector_7" d="M44.8421 12.6052C44.8421 13.6312 44.4345 14.6152 43.7091 15.3406C42.9836 16.0661 41.9996 16.4737 40.9737 16.4737H37.1053V8.73682H40.9737C41.9996 8.73682 42.9836 9.14438 43.7091 9.86985C44.4345 10.5953 44.8421 11.5793 44.8421 12.6052Z" fill="white" stroke="#191919" stroke-width="2" stroke-linecap="round" stroke-linejoin="round"/>
<path id="Vector_8" d="M21.6316 30.6579C21.6316 31.6839 21.224 32.6678 20.4985 33.3933C19.7731 34.1188 18.7891 34.5263 17.7631 34.5263H13.8947V26.7895H17.7631C18.7891 26.7895 19.7731 27.1971 20.4985 27.9225C21.224 28.648 21.6316 29.6319 21.6316 30.6579Z" fill="white" stroke="#191919" stroke-width="2" stroke-linecap="round" stroke-linejoin="round"/>
<path id="Vector_9" d="M13.8947 26.7895V34.5263H10.0263C9.00035 34.5263 8.0164 34.1188 7.29093 33.3933C6.56546 32.6678 6.1579 31.6839 6.1579 30.6579C6.1579 29.6319 6.56546 28.648 7.29093 27.9225C8.0164 27.1971 9.00035 26.7895 10.0263 26.7895H13.8947Z" fill="#FF808C" stroke="#191919" stroke-width="2" stroke-linecap="round" stroke-linejoin="round"/>
<path id="Vector_10" d="M44.8421 30.6579C44.8421 31.6839 44.4345 32.6678 43.7091 33.3933C42.9836 34.1188 41.9996 34.5263 40.9737 34.5263H37.1053V26.7895H40.9737C41.9996 26.7895 42.9836 27.1971 43.7091 27.9225C44.4345 28.648 44.8421 29.6319 44.8421 30.6579Z" fill="white" stroke="#191919" stroke-width="2" stroke-linecap="round" stroke-linejoin="round"/>
<path id="Vector_11" d="M37.1053 26.7895V34.5263H33.2368C32.2109 34.5263 31.2269 34.1188 30.5014 33.3933C29.776 32.6678 29.3684 31.6839 29.3684 30.6579C29.3684 29.6319 29.776 28.648 30.5014 27.9225C31.2269 27.1971 32.2109 26.7895 33.2368 26.7895H37.1053Z" fill="#FF808C" stroke="#191919" stroke-width="2" stroke-linecap="round" stroke-linejoin="round"/>
<path id="Vector_12" d="M13.8947 44.8421V52.5789H10.0263C9.00035 52.5789 8.0164 52.1714 7.29093 51.4459C6.56546 50.7204 6.1579 49.7365 6.1579 48.7105C6.1579 47.6846 6.56546 46.7006 7.29093 45.9751C8.0164 45.2497 9.00035 44.8421 10.0263 44.8421H13.8947Z" fill="#FF808C" stroke="#191919" stroke-width="2" stroke-linecap="round" stroke-linejoin="round"/>
<path id="Vector_13" d="M21.6316 48.7105C21.6316 49.7365 21.224 50.7204 20.4985 51.4459C19.7731 52.1714 18.7891 52.5789 17.7631 52.5789H13.8947V44.8421H17.7631C18.7891 44.8421 19.7731 45.2497 20.4985 45.9751C21.224 46.7006 21.6316 47.6846 21.6316 48.7105Z" fill="white" stroke="#191919" stroke-width="2" stroke-linecap="round" stroke-linejoin="round"/>
<path id="Vector_14" d="M44.8421 48.7105C44.8421 49.7365 44.4345 50.7204 43.7091 51.4459C42.9836 52.1714 41.9996 52.5789 40.9737 52.5789H33.2368C32.2109 52.5789 31.2269 52.1714 30.5014 51.4459C29.776 50.7204 29.3684 49.7365 29.3684 48.7105C29.3684 47.6846 29.776 46.7006 30.5014 45.9751C31.2269 45.2497 32.2109 44.8421 33.2368 44.8421H40.9737C41.9996 44.8421 42.9836 45.2497 43.7091 45.9751C44.4345 46.7006 44.8421 47.6846 44.8421 48.7105Z" fill="#808080" stroke="#191919" stroke-width="2" stroke-linecap="round" stroke-linejoin="round"/>
</g>
</svg>
