<svg width="43" height="62" viewBox="0 0 43 62" fill="none" xmlns="http://www.w3.org/2000/svg">
<path d="M16.375 50.6236C12.8809 49.6531 9.73276 47.7139 7.29415 45.03C4.85554 42.3461 3.22603 39.027 2.59388 35.4562L2.5375 35.1C1.5166 29.3236 1.00215 23.4691 1 17.6033V10.3181C1 7.98765 1.92575 5.75269 3.5736 4.10485C5.22144 2.457 7.4564 1.53125 9.78681 1.53125H33.2132C34.3671 1.53125 35.5097 1.75853 36.5758 2.20011C37.6418 2.64168 38.6105 3.28892 39.4264 4.10485C40.2423 4.92078 40.8896 5.88943 41.3311 6.9555C41.7727 8.02156 42 9.16416 42 10.3181V17.6033C42 23.4714 41.4849 29.3293 40.4625 35.1102L40.401 35.4562C39.7692 39.0264 38.1405 42.345 35.7029 45.0289C33.2652 47.7127 30.1181 49.6523 26.625 50.6236" fill="#FFEF5E"/>
<path d="M16.375 50.6236C12.8809 49.6531 9.73276 47.7139 7.29415 45.03C4.85554 42.3461 3.22603 39.027 2.59388 35.4562L2.5375 35.1C1.5166 29.3236 1.00215 23.4691 1 17.6032V10.3181C1 7.98765 1.92575 5.75269 3.5736 4.10485C5.22144 2.457 7.4564 1.53125 9.78681 1.53125H33.2132C34.3671 1.53125 35.5097 1.75853 36.5758 2.20011C37.6418 2.64168 38.6105 3.28892 39.4264 4.10485C40.2423 4.92078 40.8896 5.88943 41.3311 6.9555C41.7727 8.02156 42 9.16416 42 10.3181V17.6032C42 23.4714 41.4849 29.3293 40.4625 35.1103L40.401 35.4562C39.7692 39.0264 38.1405 42.345 35.7029 45.0289C33.2652 47.7127 30.1181 49.6523 26.625 50.6236" stroke="#191919" stroke-width="2" stroke-linecap="round" stroke-linejoin="round"/>
<path d="M26.625 45.0938H16.375V60.4688H26.625V45.0938Z" fill="#E3E3E3" stroke="#191919" stroke-width="2" stroke-linecap="round" stroke-linejoin="round"/>
<path d="M31.135 6.65625H11.865C11.0223 6.65625 10.2141 6.99102 9.61817 7.58692C9.02227 8.18281 8.6875 8.99102 8.6875 9.83375V29.1038C8.6875 30.8591 10.1097 32.2812 11.865 32.2812H31.135C31.9777 32.2812 32.7859 31.9465 33.3818 31.3506C33.9777 30.7547 34.3125 29.9465 34.3125 29.1038V9.83375C34.3125 8.99102 33.9777 8.18281 33.3818 7.58692C32.7859 6.99102 31.9777 6.65625 31.135 6.65625Z" fill="#66E1FF"/>
<path d="M31.135 6.65625H11.865C11.0223 6.65625 10.2141 6.99102 9.61817 7.58692C9.02227 8.18281 8.6875 8.99102 8.6875 9.83375V29.1038C8.693 29.5805 8.80765 30.0496 9.02264 30.4752C9.23763 30.9007 9.54725 31.2713 9.92775 31.5586L33.5899 7.89394C33.3021 7.5142 32.9313 7.20527 32.5058 6.99076C32.0803 6.77625 31.6115 6.66183 31.135 6.65625Z" fill="#C2F3FF"/>
<path d="M31.135 6.65625H11.865C11.0223 6.65625 10.2141 6.99102 9.61817 7.58692C9.02227 8.18281 8.6875 8.99102 8.6875 9.83375V29.1038C8.6875 30.8591 10.1097 32.2812 11.865 32.2812H31.135C31.9777 32.2812 32.7859 31.9465 33.3818 31.3506C33.9777 30.7547 34.3125 29.9465 34.3125 29.1038V9.83375C34.3125 8.99102 33.9777 8.18281 33.3818 7.58692C32.7859 6.99102 31.9777 6.65625 31.135 6.65625Z" stroke="#191919" stroke-width="2" stroke-linecap="round" stroke-linejoin="round"/>
<path d="M12.5312 38.6875H18.9375" stroke="#191919" stroke-width="2" stroke-linecap="round" stroke-linejoin="round"/>
<path d="M24.0625 38.6875H30.4688" stroke="#191919" stroke-width="2" stroke-linecap="round" stroke-linejoin="round"/>
<path d="M26.625 21.4829C26.625 22.8421 26.085 24.1456 25.1239 25.1068C24.1628 26.0679 22.8592 26.6079 21.5 26.6079C20.1408 26.6079 18.8372 26.0679 17.8761 25.1068C16.915 24.1456 16.375 22.8421 16.375 21.4829C16.375 19.4585 18.999 15.83 20.4929 13.9312C20.6128 13.7787 20.7658 13.6555 20.9402 13.5708C21.1147 13.486 21.3061 13.442 21.5 13.442C21.6939 13.442 21.8853 13.486 22.0598 13.5708C22.2342 13.6555 22.3872 13.7787 22.5071 13.9312C24.001 15.83 26.625 19.4687 26.625 21.4829Z" fill="#FF808C" stroke="#191919" stroke-width="2" stroke-linecap="round" stroke-linejoin="round"/>
<path d="M21.5 54.0625C21.6699 54.0625 21.8329 54.13 21.953 54.2501C22.0731 54.3703 22.1406 54.5332 22.1406 54.7031" stroke="#191919" stroke-width="2" stroke-linecap="round" stroke-linejoin="round"/>
<path d="M20.8594 54.7031C20.8594 54.5332 20.9269 54.3703 21.047 54.2501C21.1671 54.13 21.3301 54.0625 21.5 54.0625" stroke="#191919" stroke-width="2" stroke-linecap="round" stroke-linejoin="round"/>
<path d="M21.5 55.3438C21.3301 55.3438 21.1671 55.2763 21.047 55.1561C20.9269 55.036 20.8594 54.873 20.8594 54.7031" stroke="#191919" stroke-width="2" stroke-linecap="round" stroke-linejoin="round"/>
<path d="M22.1406 54.7031C22.1406 54.873 22.0731 55.036 21.953 55.1561C21.8329 55.2763 21.6699 55.3438 21.5 55.3438" stroke="#191919" stroke-width="2" stroke-linecap="round" stroke-linejoin="round"/>
</svg>
