<svg width="61" height="55" viewBox="0 0 61 55" fill="none" xmlns="http://www.w3.org/2000/svg">
<g id="pet-paw--paw-foot-animals-pets-footprint-track-hotel">
<path id="Ellipse 23" d="M30.5 22.3571C21.9038 22.3571 14.6418 29.8635 12.2966 39.5046C11.2652 43.7443 12.8191 48.2446 16.6368 50.359C19.6632 52.0351 24.1648 53.5714 30.5013 53.5714C36.8365 53.5714 41.3381 52.0351 44.3646 50.359C48.1822 48.2446 49.7375 43.7443 48.7061 39.5046C46.3609 29.8621 39.0975 22.3571 30.5 22.3571Z" fill="#8FBFFA"/>
<path id="Ellipse 24" d="M2 20.2454C2 23.9938 4.42929 27.7857 7.42857 27.7857C10.4279 27.7857 12.8571 23.9938 12.8571 20.2454C12.8571 16.4983 10.4279 14.2142 7.42857 14.2142C4.42929 14.2142 2 16.4983 2 20.2454Z" fill="#8FBFFA"/>
<path id="Ellipse 25" d="M59 20.2454C59 23.9938 56.5707 27.7857 53.5714 27.7857C50.5721 27.7857 48.1429 23.9938 48.1429 20.2454C48.1429 16.4983 50.5721 14.2142 53.5714 14.2142C56.5707 14.2142 59 16.4983 59 20.2454Z" fill="#8FBFFA"/>
<path id="Ellipse 26" d="M16.25 8.03114C16.25 11.7796 18.6793 15.5714 21.6786 15.5714C24.6779 15.5714 27.1071 11.7796 27.1071 8.03114C27.1071 4.28407 24.6779 2 21.6786 2C18.6793 2 16.25 4.28407 16.25 8.03114Z" fill="#8FBFFA"/>
<path id="Ellipse 27" d="M44.75 8.03114C44.75 11.7796 42.3207 15.5714 39.3214 15.5714C36.3221 15.5714 33.8929 11.7796 33.8929 8.03114C33.8929 4.28407 36.3221 2 39.3214 2C42.3207 2 44.75 4.28407 44.75 8.03114Z" fill="#8FBFFA"/>
<path id="Ellipse 18" d="M30.4999 22.3571C21.9037 22.3571 14.6403 29.8635 12.2951 39.5046C11.2637 43.7443 12.819 48.2446 16.6366 50.359C19.6631 52.0351 24.1647 53.5714 30.4999 53.5714C36.835 53.5714 41.338 52.0351 44.3644 50.359C48.1821 48.2446 49.736 43.7443 48.7046 39.5046C46.3594 29.8621 39.096 22.3571 30.4999 22.3571Z" stroke="#2859C5" stroke-width="2.71429" stroke-linecap="round" stroke-linejoin="round"/>
<path id="Ellipse 19" d="M2 20.2454C2 23.9938 4.42929 27.7857 7.42857 27.7857C10.4279 27.7857 12.8571 23.9938 12.8571 20.2454C12.8571 16.4983 10.4279 14.2142 7.42857 14.2142C4.42929 14.2142 2 16.4983 2 20.2454Z" stroke="#2859C5" stroke-width="2.71429" stroke-linecap="round" stroke-linejoin="round"/>
<path id="Ellipse 21" d="M59 20.2454C59 23.9938 56.5707 27.7857 53.5714 27.7857C50.5721 27.7857 48.1429 23.9938 48.1429 20.2454C48.1429 16.4983 50.5721 14.2142 53.5714 14.2142C56.5707 14.2142 59 16.4983 59 20.2454Z" stroke="#2859C5" stroke-width="2.71429" stroke-linecap="round" stroke-linejoin="round"/>
<path id="Ellipse 20" d="M16.25 8.03114C16.25 11.7796 18.6793 15.5714 21.6786 15.5714C24.6779 15.5714 27.1071 11.7796 27.1071 8.03114C27.1071 4.28407 24.6779 2 21.6786 2C18.6793 2 16.25 4.28407 16.25 8.03114Z" stroke="#2859C5" stroke-width="2.71429" stroke-linecap="round" stroke-linejoin="round"/>
<path id="Ellipse 22" d="M44.75 8.03114C44.75 11.7796 42.3207 15.5714 39.3214 15.5714C36.3221 15.5714 33.8929 11.7796 33.8929 8.03114C33.8929 4.28407 36.3221 2 39.3214 2C42.3207 2 44.75 4.28407 44.75 8.03114Z" stroke="#2859C5" stroke-width="2.71429" stroke-linecap="round" stroke-linejoin="round"/>
</g>
</svg>
