<svg width="25" height="26" viewBox="0 0 25 26" fill="none" xmlns="http://www.w3.org/2000/svg">
<g id="Group 61">
<path id="Vector" d="M20.9896 4.42385C18.6798 2.11244 15.6084 0.838813 12.3361 0.837402C5.59296 0.837402 0.105406 6.3232 0.102706 13.066C0.10192 15.2214 0.66509 17.3254 1.73552 19.18L0 25.517L6.48506 23.8165C8.27181 24.7909 10.2836 25.3044 12.3308 25.3052H12.336H12.3361C19.0781 25.3052 24.5665 19.8185 24.5694 13.0759C24.5705 9.80805 23.2991 6.73542 20.9896 4.42385ZM12.3361 23.2398H12.3321C10.5073 23.2388 8.71783 22.7489 7.15698 21.8227L6.78552 21.6025L2.93715 22.6115L3.96461 18.8607L3.7226 18.4762C2.7047 16.8577 2.16734 14.9873 2.16811 13.0668C2.17034 7.4624 6.73139 2.90294 12.3399 2.90294C15.0559 2.90407 17.6086 3.96272 19.5284 5.88389C21.4481 7.80504 22.5046 10.359 22.5038 13.0751C22.5014 18.6797 17.9402 23.2398 12.3361 23.2398Z" fill="#E0E0E0"/>
<path id="Vector_2" d="M0.561523 24.8136L2.21777 18.7661C1.19597 16.9962 0.658629 14.9882 0.659273 12.9317C0.661953 6.49696 5.89889 1.2619 12.3334 1.2619C15.4564 1.26331 18.3876 2.4787 20.5914 4.68458C22.7957 6.89044 24.0088 9.82251 24.0076 12.9408C24.0049 19.3756 18.7676 24.6112 12.3339 24.6112C12.3334 24.6112 12.3342 24.6112 12.3339 24.6112H12.3287C10.375 24.6105 8.45525 24.1201 6.75023 23.1908L0.561523 24.8136Z" fill="url(#paint0_linear_43_509)"/>
<path id="Vector_3" fill-rule="evenodd" clip-rule="evenodd" d="M9.31303 7.87414C9.08671 7.37094 8.84842 7.36087 8.63309 7.35207C8.45697 7.34451 8.25535 7.34498 8.05405 7.34498C7.85258 7.34498 7.52521 7.42069 7.24836 7.72304C6.97134 8.0254 6.19067 8.75633 6.19067 10.2429C6.19067 11.7296 7.27354 13.1662 7.42447 13.3679C7.57557 13.5694 9.51482 16.7176 12.586 17.9287C15.1385 18.9353 15.6579 18.735 16.2119 18.6847C16.7659 18.6343 17.9996 17.9539 18.2514 17.2483C18.5032 16.5429 18.5032 15.9382 18.4277 15.8118C18.3521 15.6859 18.1507 15.6103 17.8485 15.4592C17.5463 15.3081 16.0608 14.577 15.7838 14.4763C15.5068 14.3756 15.3053 14.3252 15.1038 14.6277C14.9024 14.9299 14.3236 15.6103 14.1474 15.8118C13.9711 16.0137 13.7948 16.0389 13.4926 15.8878C13.1904 15.7362 12.2172 15.4175 11.0628 14.3881C10.1645 13.5873 9.55809 12.5982 9.38181 12.2958C9.20553 11.9936 9.36291 11.8299 9.51449 11.6792C9.65016 11.5439 9.81669 11.3265 9.96778 11.1501C10.1186 10.9736 10.1689 10.8477 10.2697 10.6463C10.3704 10.4445 10.32 10.268 10.2445 10.1169C10.1689 9.96585 9.5817 8.4716 9.31303 7.87414Z" fill="white"/>
<path id="Vector_4" d="M20.8898 4.38483C18.6065 2.09995 15.5703 0.840969 12.3356 0.839539C5.66987 0.839539 0.24531 6.26236 0.242631 12.9278C0.241845 15.0584 0.798548 17.1382 1.85669 18.9715L0.141113 25.2358L6.55173 23.5548C8.318 24.518 10.3067 25.0257 12.3304 25.0264H12.3356H12.3356C19.0003 25.0264 24.4256 19.6027 24.4284 12.9375C24.4295 9.70722 23.1728 6.66986 20.8898 4.38483ZM12.3356 22.9847H12.3317C10.5278 22.9838 8.75886 22.4995 7.21593 21.584L6.84873 21.3663L3.04454 22.3637L4.0602 18.656L3.82096 18.2759C2.81475 16.676 2.28355 14.8271 2.28434 12.9286C2.28653 7.38852 6.79522 2.88141 12.3394 2.88141C15.0242 2.88252 17.5475 3.92902 19.4454 5.82813C21.3431 7.72724 22.3874 10.2518 22.3866 12.9368C22.3842 18.477 17.8754 22.9847 12.3356 22.9847Z" fill="white"/>
</g>
<defs>
<linearGradient id="paint0_linear_43_509" x1="12.2846" y1="24.8136" x2="12.2846" y2="1.26194" gradientUnits="userSpaceOnUse">
<stop stop-color="#20B038"/>
<stop offset="1" stop-color="#60D66A"/>
</linearGradient>
</defs>
</svg>
