<svg width="25" height="26" viewBox="0 0 25 26" fill="none" xmlns="http://www.w3.org/2000/svg">
<g id="Group 61">
<path id="Vector" d="M0.561554 24.8136L2.2178 18.7661C1.196 16.9962 0.658659 14.9882 0.659304 12.9317C0.661983 6.49702 5.89892 1.26196 12.3335 1.26196C15.4565 1.26337 18.3876 2.47876 20.5914 4.68464C22.7957 6.8905 24.0089 9.82257 24.0076 12.9408C24.0049 19.3757 18.7677 24.6112 12.3339 24.6112C12.3335 24.6112 12.3343 24.6112 12.3339 24.6112H12.3287C10.375 24.6106 8.45528 24.1201 6.75026 23.1909L0.561554 24.8136Z" fill="#1F1F1F"/>
<path id="Vector_2" fill-rule="evenodd" clip-rule="evenodd" d="M9.31306 7.87414C9.08674 7.37094 8.84845 7.36087 8.63312 7.35207C8.457 7.34451 8.25538 7.34498 8.05408 7.34498C7.85261 7.34498 7.52524 7.42069 7.24839 7.72304C6.97137 8.0254 6.1907 8.75633 6.1907 10.2429C6.1907 11.7296 7.27357 13.1662 7.4245 13.3679C7.5756 13.5694 9.51485 16.7176 12.5861 17.9287C15.1385 18.9353 15.6579 18.735 16.2119 18.6847C16.7659 18.6343 17.9996 17.9539 18.2514 17.2483C18.5032 16.5429 18.5032 15.9382 18.4277 15.8118C18.3521 15.6859 18.1507 15.6103 17.8485 15.4592C17.5463 15.3081 16.0608 14.577 15.7838 14.4763C15.5068 14.3756 15.3053 14.3252 15.1039 14.6277C14.9024 14.9299 14.3237 15.6103 14.1474 15.8118C13.9711 16.0137 13.7948 16.0389 13.4926 15.8878C13.1904 15.7362 12.2173 15.4175 11.0628 14.3881C10.1646 13.5873 9.55812 12.5982 9.38184 12.2958C9.20556 11.9936 9.36294 11.8299 9.51452 11.6792C9.65019 11.5439 9.81672 11.3265 9.96782 11.1501C10.1186 10.9736 10.169 10.8477 10.2697 10.6463C10.3704 10.4445 10.3201 10.268 10.2445 10.1169C10.169 9.96585 9.58173 8.4716 9.31306 7.87414Z" fill="white"/>
<path id="Vector_3" d="M20.8896 4.38477C18.6063 2.09989 15.5702 0.840908 12.3355 0.839478C5.66974 0.839478 0.245188 6.2623 0.242508 12.9277C0.241723 15.0584 0.798426 17.1382 1.85657 18.9715L0.140991 25.2357L6.55161 23.5547C8.31787 24.518 10.3065 25.0256 12.3303 25.0264H12.3354H12.3355C19.0001 25.0264 24.4255 19.6026 24.4283 12.9375C24.4294 9.70716 23.1726 6.6698 20.8896 4.38477ZM12.3355 22.9847H12.3316C10.5277 22.9837 8.75874 22.4994 7.21581 21.5839L6.8486 21.3662L3.04442 22.3636L4.06007 18.6559L3.82084 18.2758C2.81463 16.6759 2.28343 14.827 2.28422 12.9285C2.28641 7.38846 6.7951 2.88135 12.3393 2.88135C15.0241 2.88245 17.5474 3.92895 19.4453 5.82807C21.3429 7.72718 22.3873 10.2518 22.3865 12.9367C22.3841 18.4769 17.8752 22.9847 12.3355 22.9847Z" fill="white"/>
</g>
</svg>
